<?xml version="1.0" encoding="UTF-8"?>
<!DOCTYPE svg PUBLIC "-//W3C//DTD SVG 1.1//EN" "http://www.w3.org/Graphics/SVG/1.1/DTD/svg11.dtd">
<!-- Creator: CorelDRAW -->
<svg xmlns="http://www.w3.org/2000/svg" xml:space="preserve" width="297mm" height="210mm" version="1.1" style="shape-rendering:geometricPrecision; text-rendering:geometricPrecision; image-rendering:optimizeQuality; fill-rule:evenodd; clip-rule:evenodd"
viewBox="0 0 29700 21000"
 xmlns:xlink="http://www.w3.org/1999/xlink">
 <defs>
  <style type="text/css">
   <![CDATA[
    .str1 {stroke:black;stroke-width:10;stroke-miterlimit:3.864;stroke-opacity:0.501961}
    .str3 {stroke:black;stroke-width:50;stroke-miterlimit:22.9256}
    .str5 {stroke:#434242;stroke-width:10;stroke-miterlimit:22.9256}
    .str0 {stroke:black;stroke-width:10;stroke-miterlimit:22.9256}
    .str2 {stroke:black;stroke-width:10;stroke-miterlimit:3.864}
    .str6 {stroke:#2B2A29;stroke-width:7.62;stroke-miterlimit:22.9256}
    .str4 {stroke:black;stroke-width:7.62;stroke-miterlimit:22.9256}
    .fil5 {fill:none}
    .fil7 {fill:#D9DADA}
    .fil0 {fill:#94ADBD}
    .fil4 {fill:#FEFEFE;fill-rule:nonzero}
    .fil3 {fill:#D9DADA;fill-rule:nonzero}
    .fil6 {fill:#434242;fill-rule:nonzero}
    .fil2 {fill:black;fill-rule:nonzero}
    .fil1 {fill:#FEFEFE;fill-rule:nonzero;fill-opacity:0.501961}
   ]]>
  </style>
 </defs>
 <g id="Plan_x0020_1">
  <metadata id="CorelCorpID_0Corel-Layer"/>
  <path class="fil0 str0" d="M13790.79 5394.96c0.44,-11.24 5.44,-20.74 20.4,-23.82 18.42,-3.78 34.51,27.1 49.73,11.88 14.31,-14.31 19.13,-38.4 45.62,-33.36 38.59,7.35 86.37,-37.58 104.47,-25.59 16.86,11.17 13.32,42.39 36.5,58.49 38.61,26.82 83.47,-34.44 123.18,-22.39 60.53,18.37 57.19,-15.51 107.67,-26.04 67.31,-14.04 74.75,58.32 143.71,-5.94 39.29,-36.61 44.67,-76.2 74.36,-115.61 23.08,-30.64 55.76,-13.08 72.54,-39.76 44.59,-70.91 26.82,60.67 57.03,60.32 19.84,-0.23 113.48,-74.3 148.48,-102.46 4.37,-3.59 7.9,-6.54 10.28,-8.58 1.31,-1.11 3.67,-0.47 5.02,-0.91 15.27,-5.03 67.73,-84.53 89.87,-100.53 39.8,-28.75 58.5,-5.76 94.9,-15.54 22.97,-6.17 40.44,-28.7 66.61,-33.82 19.58,-3.83 38.03,7.4 54.74,-10.51 18.19,-19.5 45.55,-59.43 76.65,-54.83 39.16,5.8 61.36,-0.04 95.35,-24.22 1.53,-1.09 1.78,-3.97 3.65,-4.11 15.16,-1.15 71.86,-48.03 87.59,-58.95 34.61,-24.05 37.37,-22.61 49.73,-64.89 6.19,-21.18 18.33,-47.46 44.25,-48.43 27.13,-1.02 55.21,41.99 80.3,16.9 5.3,-5.3 7.48,-13.04 9.45,-21.15l88.18 33.49c13.36,-2.57 50.6,-9.77 60.67,-1.83 12.82,10.09 10.06,29.56 29.66,34.28 46.82,11.26 90.52,-27.25 93.98,36.1 2.18,39.8 127.96,92.04 162.41,107.38 27.2,12.1 88.4,49.07 91.7,3.66 2.84,-38.96 10.18,-57.23 -8.21,-93.22 -32.25,-63.08 24.65,-90.44 67.98,-117.44 46.29,-28.83 19.61,64.6 67.06,53.01 0,-11.52 1.58,-36.1 16.88,-36.1 24.91,8.02 37.26,24.2 46.08,-7.77 5.12,-18.55 12.43,-34.62 -1.37,-50.27 -24.6,-27.92 -47.78,-202.66 17.34,-137.54 11.83,11.83 30.62,8.84 40.6,-5.03 13.79,-19.19 -1.96,-50.45 -15.51,-65.8 -18.68,-21.18 -34.68,-12.27 -59.76,-19.19 -30.65,-11.86 -77.88,-40.67 -64.79,-80.88 8.81,-27.05 57.19,-32.2 50.64,-67.63 -8.97,-48.57 -15.88,-12.69 10.04,-53.92 16,-25.47 -10.76,-78.02 23.27,-91.85 15.81,-6.43 38.69,-0.55 56.11,-5.94 25.48,-7.87 36.82,-27.21 54.75,-45.24 20.08,-17.69 22.74,-58.2 0.91,-75.85 -31.67,-25.59 -90.12,43.26 -121.35,16.45 -26.44,-22.71 -7.32,-17.1 11.86,-25.13 33.55,-14.03 28.07,-54.21 62.5,-78.14 16.72,-11.61 46.99,-30.04 46.99,-53.01 0,-12.89 -7.83,-21.5 -15.05,-31.53 -14.47,-20.13 -3.12,-35.5 -14.6,-56.21 -15.6,-28.11 -46.38,-21.93 -21.9,-61.23l42.92 -48.23c17.17,-16.52 38.58,-29.55 51.52,-49.56 16.71,-25.84 41.25,-43.06 63.41,-61.23 22.1,-18.12 12.73,-47.17 29.65,-65.8 35.43,-38.98 70.86,-77.99 106.3,-116.98 10.56,-11.63 34.67,-22.68 39.24,-0.46 5.77,28.03 -23.63,50.06 10.04,78.6 16.98,14.39 46.11,-7.44 66.6,5.94 30.6,19.99 9.36,58.13 23.27,89.56 15.35,34.67 -29.36,36.21 9.58,84.54l47.9 7.31c33,22.41 -29.27,37.65 -13.68,63.06 10.8,17.62 -24.43,45.08 8.67,61.69 34,17.07 92.99,27.73 120.44,53.01 13.58,12.52 4.08,32.69 19.61,43.41 11.02,7.62 41.94,27.02 20.99,42.04 -18.61,31.4 1.06,51.26 -33.3,65.34 -11.04,4.53 -73.66,34.26 -38.33,48.9 56.79,23.52 0.7,71.46 15.06,103.72 12.45,27.99 125.19,120.11 145.53,91.85 23.22,-32.28 14.05,-94.64 43.8,-126.57 19.06,-20.44 108.38,-28.3 99.91,-57.58 16.21,-10.69 28.24,-14.71 48.36,-10.51 24.3,5.08 37.94,-18.5 57.49,-25.59 52.74,-17.03 116.62,-69.2 98.08,-130.23 -8.81,-29.03 19.03,-50.8 11.86,-85.91 -1.49,-7.28 -28.92,-66.82 -13.23,-70.83 10.4,-40.71 132.98,-29.62 142.34,6.4 14.49,55.71 95.14,32.98 142.35,44.78 10.39,43.44 -24.93,98.71 19.16,130.69 18.52,13.44 45.87,-7.28 68.89,5.48 36.73,20.38 19.68,20.18 67.52,14.17 22.22,-8.62 42.66,-7.11 64.78,-22.85 25.79,-18.37 68.06,-52.22 98.54,-58.49 24.94,-5.14 49.06,49.37 65.7,39.3 9.66,5.9 33.85,-25.28 40.6,-31.07 26.31,-22.6 48.98,-15 21.9,-45.7 -12.6,-14.27 -17.43,-29.46 -11.41,-46.61 17.44,-49.6 -6.26,-23.09 -34.67,-17.36 -59.64,12.02 -7.47,-41.77 -37.86,-46.16 -6.72,-7.32 -52.04,-28.46 -35.59,-44.78 35.82,-35.51 69.32,-29.66 92.61,-81.79 10.35,-23.15 36.17,-39.26 39.69,-66.72 2.46,-19.14 73.57,-100.07 42.43,-100.07 -51.77,0 -90.83,45.51 -121.81,-16.45 -9.26,-24.02 -36,-49.02 -5.93,-70.83 14.02,-10.18 52.83,-13.01 59.31,-31.07 1.65,-4.59 -22.68,-28.79 -26.92,-28.79 -3.68,0 -23.88,27.96 -33.3,32.44 -21.16,10.08 -87.87,13.16 -49.73,-25.13 40.83,-41.01 -15.65,-97.4 10.04,-132.06 10.31,-13.9 50.05,0.48 69.34,-13.71 33.93,-24.94 29.87,-61.12 55.66,-90.02 24.24,-33.12 -2.59,-62.98 37.87,-88.19 36.05,-22.45 29.54,-43.7 53.38,-65.8 21.03,-19.48 19.42,-33.31 21.89,-58.49 1.33,-13.58 42.04,-32.29 52.93,-38.84 35.42,-21.29 49.49,34.55 89.87,41.12 36.14,5.89 85.76,79.53 113.6,65.81 28.28,-13.95 25.87,-32.69 31.48,-58.95 2.45,-11.44 -6.57,-20.71 5.93,-29.7 5.37,-3.87 22.59,-5.81 24.63,2.74 13.9,3.32 23.17,13.71 42.89,13.71 69.59,-13.17 28.29,-8.38 49.73,-54.38 4.18,-8.96 60.39,-42.33 71.17,-47.07 35.41,-15.6 78.69,-0.74 117.7,-12.79 10.16,-3.14 50,-2.07 42.43,-20.56 -6.19,-15.1 -21.9,-23.18 -21.9,-42.5 11,-3.66 22.21,-21.13 37.87,-16 34.91,11.43 25.76,12.12 62.96,0 39.16,-12.75 26.32,-26.96 37.86,-58.49 22.13,-30.69 -32.39,-50.94 -48.36,-63.51 -53.22,-41.93 -1.63,-36.95 -16.42,-81.34l-38.32 0.91c-4.54,0.1 -33.08,-8.25 -27.38,-15.99 -0.67,-0.91 -10.34,-60.39 2.29,-59.4 7.75,0.61 22.78,26.45 35.12,31.53 35.46,14.63 31.74,-8 13.69,-26.05 -13.93,-13.93 -28.74,-42.59 -28.74,-62.15 -0.39,-0.12 -2.59,-1.83 -2.74,-2.28 -13.18,0 -24.45,-9.6 -35.13,-9.6 -3.33,10.47 0.43,13.87 -0.45,25.14 -0.77,9.75 -19.31,16.78 -20.53,38.38l-2.28 40.21c-11.92,3.97 -28.71,-4.09 -38.78,-14.16 -33.58,-33.58 19.49,-34.31 13.68,-66.72 -3.73,-20.79 -25.65,-50.85 -41.06,-66.26 -0.18,-5.95 -24.57,-48.67 -10.03,-47.52 18.72,1.47 70.25,15.94 70.25,-19.19 0,-19.93 33.62,-33.67 51.1,-29.25 18.15,72.62 136.41,-9.03 136.41,51.64 0,21.96 79.6,74.65 87.14,104.18 9.07,2.32 52.5,24.01 44.71,-8.22 -0.83,-0.21 -0.71,-0.08 -0.91,-0.92 -43.13,-10.31 -19.07,-33.89 -14.15,-54.83 5.53,-23.48 -7.98,-48.63 -2.28,-72.2 19.23,-4.86 59.77,27.84 59.77,-16.45 15.11,-39.2 -11,-62.93 -25.55,-91.39 -7.46,-14.61 1.46,-37.18 -8.21,-49.81 -3.06,-4.01 -13.97,-38.71 -6.39,-41.12l0 -0.92 0.46 -0.46c0.87,0 1.13,-0.28 1.36,0.46 24.77,0 37.44,-13.02 46.99,12.34 18.78,49.82 66.99,14.58 80.76,69.91 2.45,9.88 10.49,36.83 0.45,42.96 -17.08,10.41 -32.57,-5.36 -46.99,5.02 -19.18,13.79 137.78,115.36 112.23,16.45 -6.59,-25.51 45.77,-78.83 36.04,-120.17 -2.64,-11.23 -10.23,-38.7 8.67,-33.82 29.61,7.64 5.25,54.26 33.76,74.94 24.91,18.08 38.86,-26.75 41.52,-43.41 3.89,-24.44 -0.84,-34.62 22.81,-49.35 27.76,-17.3 43.54,-22.52 30.11,-55.29 -16.56,-40.39 -9.56,-46.7 15.05,-81.34 24.97,-13.36 28.45,-67.38 62.96,-58.95 3.39,23.6 -8.92,42.42 10.95,63.98 8.41,9.14 26.93,16.05 31.02,28.78 7,21.83 -7.58,35.5 9.13,58.04 15.7,21.16 14.3,44.92 22.35,69.45 4.74,21.69 27.01,33.67 39.24,49.81 20.18,26.6 31.1,54.43 46.08,84.54 12.29,24.68 52.37,19.49 75.73,25.13 0,0.89 -0.08,0.66 0.45,1.37 -12.45,17.1 -55.62,36 -40.14,64.43 7.41,13.63 22.41,23.2 34.67,32.45 14.54,10.96 16.92,29.66 21.44,46.61 3.21,16.73 20.04,65.61 29.66,79.51 14.72,21.28 62.33,72.35 88.5,76.31 36.85,5.59 22.08,-49.06 17.34,-70.37 -7.27,-32.72 -9.58,-39.91 -38.78,-53.01 -28.7,-12.87 -49.81,-41.46 -62.5,-70.37 -12.24,-27.91 60.67,-57.24 79.84,-76.31l58.83 -16.91c-1.86,24.16 30.82,29.51 35.6,55.75 5.3,29.09 35.67,58.18 33.76,93.22 -0.63,11.67 -5.01,22.53 -5.01,34.73 0,8.03 8.93,16.04 11.4,23.76 3.94,12.27 -4.03,52.24 15.51,51.18 24.55,-1.33 59.47,-10.17 51.56,31.53 -5.86,30.9 -16.95,52.83 -10.5,84.99 9.08,45.28 58.01,52.42 86.23,90.48 16.8,22.66 44.47,82.56 67.06,93.22 13.37,6.3 27.03,5.27 40.61,14.16 30,19.63 6.06,34.8 50.64,27.88 17.4,-2.7 26.58,-0.39 31.79,4.78l72.68 -30.83c59.69,-11.48 139.23,-9.1 180.21,46.15 12.91,17.42 43.98,108.29 60.22,98.25 21.72,-13.41 85.88,-93.88 109.03,-77.23 95.41,68.66 63.25,2.83 156.03,-2.28 40.48,-2.22 63.79,-20.46 101.28,-29.7 38.08,-9.38 39.96,18.99 70.26,32.44 50.51,19.57 68.08,-25.63 108.58,-39.76 24.97,-8.72 37.89,27.95 62.96,17.37 16.3,-6.87 49.61,-16.81 61.59,-28.79 10.2,-10.2 5.84,-23.02 10.49,-35.19 8.99,-23.55 25.64,-23.14 23.72,-54.37 -1,-16.21 -15.96,-36.42 -21.89,-52.55 -2.2,-7.62 -16.91,-53.49 2.73,-47.98 39.15,10.97 30.47,49.09 77.56,14.16 26.83,-19.89 8.74,-35.21 -14.6,-42.95 -27.09,-8.97 -6.46,-22.09 13.23,-9.6 12.71,8.05 71.52,23.63 53.84,-12.34 -3.99,-8.14 -15.67,-11.5 -24.64,-16.45 -5.24,-2.9 -10.32,-5.41 -15.51,-9.13 -2.61,-1.88 -7.64,-13.71 -1.83,-13.71 1.16,-3.5 12.81,3.58 15.06,4.57 13.59,5.98 56.97,28.1 68.89,25.13 38.93,-9.73 6.18,-24.02 8.21,-44.78 1.17,-11.93 59.83,7.06 54.29,-51.18 -1.59,-16.75 -20.75,-25.37 -24.64,-40.67 -7.29,-28.7 11.07,-36.74 25.55,-57.12 64.52,-27.1 -12.09,-94.76 -26.91,-127.95 -5.7,-12.76 3.33,-52.99 20.07,-28.79 18.15,26.22 59.3,76.85 93.98,74.49 43.2,-2.93 93.26,-114.12 140.52,-143.94 32.68,-20.63 71.54,-8.6 104.47,-30.16 36.31,-23.76 13.45,-32.9 67.06,-32.9 1.99,7.79 -20.53,37.58 -20.53,54.38 0,18.77 10.36,61.49 28.29,70.37 32.89,16.31 40.19,-35.08 53.38,-50.27 18.53,-9.56 25.6,-24.6 48.36,-30.16 15.41,-3.77 30.1,1.54 45.16,-0.91 17.93,-2.91 55.7,-26.3 60.22,-44.78 4.69,-19.22 -34.81,-70.36 -54.74,-50.27 -15.74,15.85 -20.88,18.74 -42.89,13.25 -24.54,-6.13 -13.78,-36.89 -19.61,-38.38 -3.24,-12.83 -32.06,-9.45 -26.01,-40.67 9.72,-50.08 58.2,-0.37 77.1,6.85 5.73,2.18 62.38,-0.38 69.35,-3.19 25.68,-10.39 8.42,-24.19 3.65,-38.85 -5.21,-15.98 -10.92,-66.36 -7.76,-82.7 9.5,-49.11 68.18,-43.84 93.55,-5.35 9.54,14.48 4.99,38 4.99,58.81 0,21.71 48.81,92.34 73,84.54 22.37,-7.22 34.23,-33.62 56.57,-42.96 21.46,-8.97 72.49,-10.87 95.77,-13.01l-1.28 2.14 -32.9 54.74 -190.24 289.71c-13.54,20.62 -44.98,51.13 -51.56,73.57 -71.12,107.07 -230.9,163.74 -257.3,302.5 -4.89,25.73 -30.83,73.82 -50.64,89.57 -32.8,73.09 -29.06,99.81 -95.81,150.33 -51.41,38.9 -100.89,89.34 -140.06,140.75 -20.88,27.39 -49.59,81.43 -75.28,100.53 -16,25.78 -14.15,60.06 -44.71,78.14 -24.58,14.55 -48.24,35.56 -68.88,56.2 -53.84,53.84 -96.5,90.2 -99.92,168.62 -2.24,51.23 -32.69,54.76 -67.52,81.34 -34.27,18.29 -84.14,72.98 -114.96,99.15l-95.81 81.34 -187.51 177.76c-60.62,52.96 -119.94,119.86 -123.63,204.26 -3.83,87.39 -123.09,124.67 -188.42,166.79l-213.51 114.69 -181.58 75.86c-27.4,11.45 -79.7,56.09 -100.36,58.94 -1.88,1.88 -1.75,1.37 -5.48,3.66 -82.23,60.53 -198.29,87.43 -290.15,133.43 -78.82,39.48 -155.33,85.31 -224.01,139.37 -51.32,46.56 -103.3,80.84 -161.96,116.98 -34.38,21.17 -101.92,59.86 -125,91.39 -15.82,21.6 -12.13,62.6 -25.09,89.56 -21.1,43.85 -65.57,62.81 -103.56,87.28l-117.71 73.12c-34.72,21.57 -21.4,67.19 -43.34,95.04 -56.07,71.15 -116.05,35.64 -83.03,142.57 14.84,48.05 -46.84,58 -60.22,90.02 -22.6,62.35 -39.83,56.83 -93.53,89.57 -45.13,27.5 -14.14,85.95 -51.55,111.95 -23.6,16.39 -55.15,21.7 -77.56,39.75 -42.33,34.12 -21.66,71.36 -46.53,97.79 -17.06,18.14 -42.34,20.6 -57.48,35.19 -24.03,24.03 -55.98,34.95 -77.56,56.66 -15.95,16.03 -6.58,51.87 -16.43,74.03 -26.48,59.61 -114.02,48.1 -147.81,90.02 -33.7,41.83 -48.11,47.42 -101.74,56.66 -53.06,9.15 -95.26,24.13 -137.32,59.4 -43.36,13.47 -110.17,30.67 -148.73,53.47 -46.64,27.59 -44.51,88.54 -83.94,111.49 -90.02,52.42 -215.8,76.64 -298.37,136.18l-488.15 235.79 -291.98 173.64c-40.85,24.29 -221.88,122.57 -232.22,165.42l-231.3 223.9c-33.32,32.25 -176.9,138.25 -184.32,175.02l-5.47 5.94c-38.19,46.76 -79.29,88.02 -102.65,145.31 -20.3,49.77 -22.93,108.56 -47.45,154.91 -16.08,30.42 -38.87,40.83 -52.46,77.22 0,86.11 62.13,80.33 106.75,125.21 36.46,36.66 69.41,85.09 125.46,58.95 16.96,-7.9 15.13,-0.52 29.66,0.91 12.7,1.24 11,-24.31 17.79,-29.7 20.12,-80.92 25.16,-160.96 -9.12,-238.08 -7.02,-15.81 -50.52,-85.73 -42.89,-97.78 10.35,-16.32 29.7,4.69 35.59,13.7 23.04,35.29 33.96,74.51 36.49,115.61 2,32.45 18.71,113.61 3.65,141.66 -8.78,48 -21.89,92.5 -21.89,141.66 0,20.88 11.16,93.31 2.28,108.29 0,3.81 -0.2,4.95 -1.37,9.14 -14.79,34.02 -33.02,89.57 -26.01,127.04 4.74,25.39 29.91,38.67 34.68,68.08 5.79,35.62 -78.74,130.86 -102.65,158.11 -13.74,40.94 -39.95,69.8 -34.68,116.98 3.49,31.22 18.99,83.6 2.29,112.41 -35.06,60.52 -146.4,54.38 -197.09,90.93l-280.58 142.57 -260.04 148.51c-40.1,23.56 -87.34,37.1 -128.2,61.24 -39.62,23.42 -77.35,57.17 -122.27,68.08 -90.11,21.88 -177.16,23.84 -263.69,64.43 -55.43,21.35 -128.85,66.73 -177.47,101.9 -28.2,20.41 -109.05,110.01 -142.34,82.71 -21.21,-17.38 -10.8,-58.04 -28.74,-74.94 -24.37,-22.94 -93.95,-23.41 -125.92,-26.5 -34.87,-3.38 -137.61,-28.88 -164.69,-18.74 -95.18,-29.46 -205.6,-60 -303.84,-35.18l-302.02 76.31c-230.91,70.75 -290.83,173.79 -359.05,392.52 -11.4,49.29 2.4,111.83 -23.72,156.28l-75.73 128.86c-15.22,25.9 -25.03,65.72 -44.26,87.28 -32.64,41.17 -45.57,80.49 -36.95,132.52 8.33,50.34 -3.34,56.46 -44.25,79.05 -73.81,40.74 -123.83,122.85 -177.47,186.44 -93.4,93.4 -203.87,165.84 -128.2,308.9 25.3,47.83 -0.18,44.97 -27.37,72.2 -35.35,23.48 -98.63,78.8 -137.78,85.45 -35.86,6.1 -105.09,24.62 -138.69,21.02 -78.08,-8.39 -162.63,30.04 -218.07,-40.67 -14.64,-11.96 -40.81,-33.73 -41.52,-53.46 -0.94,-25.89 -1.47,-30.99 -19.16,-49.81 -29.84,-31.73 -19.45,-68.29 9.58,-94.13 26.64,-23.7 12.67,-49.38 3.65,-77.69 -11.17,-35.03 -45.48,-71.04 -75.73,-90.93 -83.24,-55.29 -214.29,-62.34 -307.95,-34.27 -87.5,26.23 -194.53,42.45 -274.65,85.45 -176.81,54.54 -314.57,140.61 -460.32,251.32 -66.05,60.79 -124.39,117.47 -179.75,186.9 -51.9,65.11 -70.47,139.99 -104.48,210.2 -15.39,46.86 -15.1,79.91 -20.53,127.49 -5.68,49.7 -6.67,50.99 -39.69,87.28 -12.54,13.79 -22.33,52 -23.72,70.37 -2.24,29.73 -25.1,76.42 -23.72,100.53 -38.2,23.8 -82.86,95.55 -111.32,133.43l-95.81 127.49c-24.7,32.87 -16.19,69.08 -30.11,100.99 -21.65,65.93 -64.29,101.21 -67.52,175.01 -2.33,53.24 29.39,151.89 3.2,197.86 -43.52,55.34 -71.01,153.85 -86.69,221.62 -14.49,62.59 -1.36,125.96 -1.36,189.64 -5.79,63.23 11.58,136.94 21.89,199.23 9.28,56.02 31.3,101.94 47.91,153.54 21.49,50.97 21.9,76.98 21.9,129.77 0,46.17 5.43,91.32 11.4,137.55 3.31,25.69 14.81,68.24 12.78,91.85 17.95,28.34 21.37,52.05 46.53,76.76l45.17 44.33c33.59,32.97 46.72,98.21 51.09,143.94 2.31,24.23 23.38,76.88 20.53,94.59 11.05,33.29 32.88,48.8 48.36,75.85 46.92,9.46 26.77,105.94 18.71,132.52 -17.92,59.02 -11.02,124.98 -22.36,185.98l-20.07 344.55c0,51.51 -26.51,70.39 -36.96,115.6 -8.91,38.51 -40.14,81.25 -40.14,118.36 0,14.86 4.03,47.02 0.91,59.4 -0.82,0.2 -0.71,0.07 -0.91,0.91 -39.76,9.94 -4,49.44 -26.01,79.97 -23.01,52.68 -4.56,127.72 -4.56,183.7 0,57.91 19.16,117.58 19.16,171.81 9.26,33.71 10.12,75.02 17.34,109.67 6.69,32.15 23.88,46.59 38.78,73.11 31.84,56.68 54.42,137.01 70.71,200.61 27.04,81.44 59.73,146.57 97.63,222.08 30.62,60.98 64.5,121.02 76.19,187.81 4.52,53.88 -8.31,78.79 -26,129.31 -18.42,52.63 -15.98,81.78 -17.8,135.72 -0.94,27.76 -3.92,62.47 -9.12,89.56 2.55,86.95 48.86,176.24 84.4,250.87 11.18,23.47 8.81,53.1 20.98,74.94 12.2,21.92 42.12,69.43 40.61,93.22 5.97,30.96 3.32,65.63 24.63,90.93 12.35,14.65 33.4,20.69 46.99,34.28 13.56,13.56 19.61,33.76 22.84,55.92l0.2 1.43c-67.97,24.88 -94.27,-63.17 -126.14,-92.54 -42.13,-38.81 -159.54,-9.34 -213.06,-0.46 -33.72,5.6 -99.71,22.79 -132.3,13.25 -48.82,-3.92 -90.44,-38.17 -138.23,-12.79 -40.82,21.69 -89.13,53.38 -131.85,22.39 -23.36,-16.95 -4.72,-63.03 -10.04,-84.08 -0.82,-0.21 -0.7,-0.09 -0.91,-0.91 -23.57,-5.95 -73.41,20.1 -102.19,20.1 -28.16,0 -61.78,17.99 -78.02,42.5 -16.09,24.27 7.39,40.81 -1.82,58.03 -4.07,19.98 11.95,46.73 -10.95,58.95 -13.61,7.25 -50.71,2.52 -55.2,20.56 -10.41,41.88 81.59,52.95 65.69,86.37l-36.95 77.68c-9.22,19.39 -81.99,24.68 -105.84,34.27 -51.52,20.7 -92.01,49.91 -146.91,65.8 -34.47,9.3 -98.25,-7.62 -122.72,14.17 -48.15,42.86 -37.91,38.2 -94.89,13.25 -23.1,-10.12 -32.31,23.67 -48.36,34.27 -33.04,21.8 -79.18,15.32 -26.92,51.64 35.22,24.47 86.73,38.05 125,51.18 0,19.02 -72.45,64.01 -88.5,76.31l-4.11 -2.74c-8.31,-43.08 -44.79,-46.59 -80.29,-25.59 -57.05,33.74 -28.92,-5.2 -42.89,-37.02 -8.54,-19.47 -52.56,21.14 -57.48,1.37 -11.09,-44.62 14.72,-28.02 22.81,-59.4 4.95,-19.17 -94.27,-15.7 -110.4,-14.17 -50.93,0 -18.48,41.94 -76.19,18.28 -27.91,-11.45 -46.28,55.75 -84.4,55.75 -81.36,0 -105.85,-157.58 -123.64,-160.85 -21.49,-3.94 -54.88,8.69 -78.93,8.69 -43.62,0 -157.28,-16.31 -188.41,2.74 -80.86,49.46 -94.1,81.34 10.03,81.34 12.61,36.75 -113,224.16 13.69,136.62 26.45,-18.28 18.97,22.38 -5.02,32.45 -34.89,13.23 -9.74,62.7 -56.57,67.17 -30.13,2.88 -82.1,4 -106.76,22.85 -20.33,15.53 -20.79,43.44 -48.35,50.72 -35.96,9.51 -16.98,52.4 -24.64,83.17 -7.92,31.86 -79.14,51.68 -107.67,67.63 -32.97,18.44 -94.89,-45.21 -94.89,-78.6 0,-1.78 -30.74,0.73 -49.73,-13.25 -17.69,13.02 -15.54,49.74 -39.23,55.75 -30.62,7.78 -25.91,-34.17 -41.06,-35.65 -12.3,-1.21 -15.65,107.49 -34.68,132.52 -41.81,41.81 -102.97,78.44 -117.25,140.29 -9.58,41.46 6.21,117.1 -54.29,127.94 -14.95,2.67 -71.66,3.89 -85.31,-1.82 -37.9,-15.84 -80.86,-18.19 -120.9,-2.75 -25.72,-12.71 -55.66,-23.69 -55.66,-57.57 0,-20.49 3.76,-48.7 -15.96,-60.32 -24.22,-14.26 -164.33,-1.25 -130.03,-47.52 11.58,-15.61 64.15,-52.67 62.51,-69.46 -4.16,-42.68 -89.89,13.03 -104.48,15.08 -23.72,3.35 -35.77,-13.12 -58.39,-18.74 -42.02,-10.46 -179.13,61.46 -86.69,94.14 28.24,9.99 63.56,55.79 13.24,44.78 -36.16,-7.92 -81.06,-9.18 -93.99,-49.35 0,-26.46 20.31,-93.3 9.58,-112.41 -17.76,-31.6 -62.12,12.55 -84.4,21.02 -29.12,11.08 -58.28,10.13 -88.5,4.11 -54.93,-10.94 -47.91,-0.93 -86.23,31.98 -38.1,32.71 -84.67,53.09 -134.58,39.3 -15.38,-4.25 -54.19,-30.61 -63.42,-30.61 -10.8,0 -26.58,65.52 -32.84,77.22 -9.07,21.04 8.85,48.86 -24.18,57.58 -23.45,6.2 -43.03,-4.47 -63.42,-14.62 -71.93,-35.78 -45.9,-1.99 -83.94,39.29 -15.25,16.56 -65.81,27.01 -49.73,49.36 21.97,30.55 40.79,40.46 37.86,83.62 -1.8,26.63 18.71,32.01 18.71,52.55 0,30.58 -39.13,14.68 -53.83,15.99 -21.13,1.88 -14.49,65.38 -30.57,78.14 -12.5,37.64 -37.87,73.54 -37.87,114.24 0,13.16 -2.34,102.33 -6.38,105.1 0,24.92 -13.57,47.91 -26.46,68.54 -7.98,12.76 -43.76,41.2 -46.08,50.72 -2.86,0.71 -7.32,5.89 -9.13,7.77 -12.44,14.31 -33.3,15.17 -33.3,38.39 0,14.02 2.43,23.82 1.37,38.38 -2.63,36.28 14.48,41.6 -10.04,75.4 -51.14,70.47 -51.28,-35.99 -103.56,-57.12 -18.01,-7.27 -16.39,19.17 -5.02,27.87 9.6,7.33 31.32,15.73 17.79,32.9 -16.54,21 -40.34,6.04 -26.91,50.27 9.22,30.39 -2.37,49.67 -34.68,57.57 -62.5,15.28 -21.82,17.81 -29.19,56.21 -5.59,14.76 1.79,49.02 -12.32,55.29 -17.83,7.94 -44.94,5.01 -65.24,10.51 -42.81,11.62 -90.98,74.46 -135.04,53.92 -28.4,-13.25 -61.74,-22.22 -87.6,-36.1 -50.57,-39.22 -145.35,-140.44 -206.21,-149.88 -10.7,-1.66 -69.05,-1.67 -74.36,5.49 -18.29,24.67 -16.9,68.47 -31.94,98.7 -18.7,37.56 -73.18,34.54 -75.73,-9.6 -1.99,-34.37 15.1,-118.02 45.62,-136.63 34.94,-21.32 31.78,-28.16 35.13,-63.51l-39.23 -126.12 0 0 10.03 -30.62c7.05,-55.84 36.45,-105.62 27.38,-164.05 -2.7,-17.4 -13.49,-40.09 -5.02,-57.12 6.85,-13.75 35.62,-18.34 49.27,-28.78 7.47,-5.7 38.8,16.45 53.38,16.45l3.65 -4.12c29.67,-2.39 42.04,-8.88 64.78,-14.62 0,-27.44 13.57,-32.44 39.69,-32.44 8.91,0 34.69,-38.9 -8.21,-24.68 -24.35,8.06 1.12,-32.65 5.02,-37.47 14.68,-18.18 21.16,9.97 35.58,-4.57 14.9,-15.04 19.52,-75.93 33.31,-82.71 14.07,-6.91 64.96,52.29 76.19,63.52 19.39,19.39 39.18,0.37 51.55,11.42 21.69,19.4 12.32,58.52 53.38,41.59 26.92,-11.09 33.28,-64.59 53.37,-59.41 8.09,2.09 28.56,5.29 29.2,14.17 1.37,18.96 29.55,97.29 28.29,39.75l-0.92 -42.04c-0.47,-21.6 -28.54,-21.81 -37.41,-37.01 -13.44,-23 -37.63,-5.6 -58.39,0.46 -37.78,11.02 -23.24,-36.71 -27.83,-58.95 -4.57,-22.2 25.59,-38.25 40.15,-51.64 13.41,-17.29 2.11,-60.69 36.95,-49.35 25.82,8.41 47.82,-4.5 68.89,-9.59 8.19,-32.76 40.35,-48 5.02,-68.55 -26.19,-15.22 -20.53,-50.38 -20.53,-79.51 0,-25.35 29.06,-23.26 35.13,-41.58 13,-39.27 32.17,-21.32 52.01,-48.89 8.82,-12.27 30.4,0.04 41.97,-9.14 39.58,-34.79 0.13,-45.04 16.42,-79.97 12.14,-26.06 47.91,-27.74 47.91,-56.21 0,-20.99 -25.3,-41.21 -21.9,-57.57 3.51,-16.87 37.18,-25.45 43.34,-43.41 0.93,0 0.68,0.24 0.91,-0.46 29.73,0 17.34,-16.89 17.34,-36.1 0,-5.11 45.27,-19.17 52.46,-18.73 16.51,1.01 22.31,-3.26 26.92,-19.2 2.53,-21 7.32,-40.67 -20.53,-40.67 -11.57,0 -62.09,3.28 -24.64,-16.45 48.62,-25.6 38.17,-15.23 35.59,-71.28 -1.77,-38.62 28.11,-47.37 38.32,-76.77 14.05,-40.41 -38.79,-55.14 -49.27,-89.11 -8.33,-26.97 6.83,-25.86 -24.18,-15.53 0,0.87 0.28,1.13 -0.46,1.37 0,11.75 14.84,34.82 3.65,40.21 -15.16,7.29 -30.45,-5.03 -44.71,-5.03 -13.88,0 -1.62,21.04 -5.93,26.51 -21.12,26.82 -74.41,-40.91 -88.5,-56.21 -25.17,-27.31 -53.38,0.43 -57.94,-49.35 -25.04,-66.05 -87.03,49.76 -98.55,-9.59 -19.06,-98.26 -60.65,7.22 -98.54,-6.4 -10.4,-3.74 -66.12,-51.35 -53.83,-61.23 11.01,-8.86 32.87,0.99 36.95,13.25 6.39,1.61 55.55,11.21 46.99,-5.94 -1.59,-3.18 -51.65,-45.62 -57.94,-47.53 -22.35,-6.82 -44.1,-0.14 -66.15,-3.19 -7.98,-31.95 22.75,-70.66 24.63,-105.1 2.67,-48.91 -18.86,-99.61 -36.04,-143.94 0,-77.31 22.52,-136.49 47.91,-205.63 9.19,-25.01 55.38,-157.08 16.88,-167.71 -34.73,-9.58 -78.15,21.02 -114.97,21.02 -76.39,0 -178.19,15.46 -252.29,1.83 -17.23,-3.16 -22.15,-20.38 -36.04,-24.67 -17.93,-5.53 -36.04,23.74 -62.05,15.08 -24.73,-8.24 -36.16,50.27 -52.01,64.88 -23.94,22.05 -34.97,-59.99 -26,-72.65l34.67 -48.9c20.25,-73.69 -37.23,-51.68 -75.73,-72.65 -55.46,-30.19 -1.45,-69.46 -87.6,-69.46 -48.28,0 -45.43,5.02 -89.41,29.7 -39.07,21.91 -42.03,-33.63 -67.98,-54.38 -35.61,-28.49 -14.41,-21.03 -12.32,-49.8 0.79,-10.83 -7.56,-18.73 -5.02,-29.25 24.06,-6.08 98.48,26.09 116.79,-12.34 25.16,-52.82 -70.92,-99.72 -46.07,-127.94 15.5,-28.26 64.32,-36.69 66.6,-70.38 3.36,-49.45 -40.23,-34.67 -16.42,-88.19 27.47,-61.72 2.01,-138.91 -73.91,-121.55 -64.9,14.85 -42.21,-34.5 -89.42,-69.91 -3.49,10.95 -15.98,35.74 -27.37,45.69 -14.52,12.69 27,30.91 4.56,38.85 -25.22,8.91 -87.14,12.43 -102.65,-9.14 -15.48,-21.51 -47.21,21.16 -65.24,31.07 -36.46,20.03 -22.36,76.91 -70.71,64.43 -51.33,-13.26 -28.53,-61.27 -37.87,-109.21 20.64,-75.11 37.97,-55.01 97.18,-81.34 36.25,-16.13 7.93,-110.72 5.93,-140.29 -2.93,-43.13 -14.16,-31.98 -48.82,-31.98 -11.26,34.3 -19.6,54.07 -37.86,83.62 -12.55,20.33 -63.53,77.26 -85.31,55.29 -20.79,-20.96 -49.92,-22.35 -62.96,-52.09 -4.11,-9.36 0.93,-36.26 -6.85,-38.39 -36.78,-10.08 -113.03,2.89 -152.37,5.03 -22.37,1.22 -45.81,-27.51 -52.01,-17.36 -16.25,26.56 -47.85,49.12 -37.41,78.14 7.71,21.45 38.81,43.05 43.34,56.66 17.73,0 26.25,22.45 21.9,37.47 -36.79,19.43 -8.05,50 -21.9,52.09 -14.74,2.23 -32.65,-2.55 -36.96,14.17 -3.85,14.91 -55.9,21.35 -76.64,46.61 -19.54,23.82 20.78,69 -15.06,69 -25.39,0 -111.6,7.97 -129.11,21.02 -64.48,48.09 -1.17,132.52 -24.18,164.5 -14.24,19.81 -43.79,1.25 -43.79,-17.82 0,-41.66 10.13,-61.45 -39.69,-42.5 -60.7,23.1 -50.77,-4.78 -12.78,-17.82 -8.44,-34.92 -59.61,-27.6 -86.68,-36.56 -5.26,-1.74 -16.13,-16.32 -19.62,-14.16 -15.35,9.49 -19.12,30.34 -38.32,38.38 -21.81,12.62 -92.07,22.43 -35.13,54.84 27.8,15.83 57.63,19.19 39.24,45.24 -9,-2.58 -36.96,35.17 -36.96,1.37 0,-23.57 -6.9,-33.39 -31.48,-34.73 -74.46,-4.07 -15.3,47.24 -48.36,69.46 -16.56,11.14 -51.1,43.2 -69.8,33.35 -33.19,-17.47 -14.58,-52.98 -55.66,-69.91 -7.78,-3.21 -36.39,-39.27 -30.11,-6.85 4.42,22.8 3.65,42.23 3.65,64.43 0,29.2 31.94,45.44 31.94,70.82 0,41.71 -47.9,21.3 -65.24,6.4 -39.46,-33.88 -55.66,-22.12 -43.8,31.99 9.61,43.8 -76.34,32.6 -78.47,9.14 -5.63,-62.06 27.05,-34.58 36.96,-86.82 7.12,-37.5 15.88,-125.6 -18.25,-154.91 0,-42.13 11.47,-41.78 23.72,-75.86 4.3,-11.96 -55.03,-21.12 -67.52,-5.48 -11.51,14.43 -23.9,45.42 -34.22,11.88 -6.87,-22.32 -30.81,-38.74 -10.03,-63.06 15.22,-17.83 52.21,-81.33 -6.85,-44.78 -31.12,19.25 -34.5,2.74 -62.95,2.74 -24.54,0 -52.53,5.4 -70.72,-12.79 -28.75,-28.75 -31.7,-21.93 -67.97,-13.71 -84.8,60.42 -67.54,53.22 -100.37,-20.56 -11.02,-24.75 -116.04,43.21 -150.55,28.78 -16.7,-6.99 -33.74,-60.25 -47,-78.14 -12.94,-17.44 13.52,-41.55 1.83,-60.31 -14.76,-23.7 -47.47,-21.73 -50.18,9.59 -0.86,9.92 10.68,79.66 -15.06,53.92 -39.04,-39.04 -18.7,8.81 -53.38,17.82 -36.02,9.35 -20.9,-64.68 -19.16,-79.96 16.36,-143.76 -116.73,-45.31 -60.22,58.49 38.24,70.22 -75.59,2.17 -86.68,47.52 -9.55,39 97.76,14.85 78.12,89.13 -4.47,31.1 -17.14,36.29 3.09,64.41 12.18,16.94 16.58,31.26 31.93,46.61 5.57,5.57 26.42,14.41 26.01,19.65 -0.51,6.6 -33.58,45.23 -38.33,45.23 -0.22,0.69 -30.38,-17.49 -41.97,-18.27 -25.97,-1.75 -50.97,0.3 -77.1,-1.83 -26.15,0 -78.6,-26.97 -89.88,-0.92 -19.07,44 5.88,49.83 -49.27,36.56 -28.92,-6.96 -20.14,-14.81 -26.46,-40.21 -3.09,-12.45 -15.79,-15.25 -24.63,-22.85 -41.79,-35.88 -44.23,-33.76 -66.16,15.54 -8.2,18.42 -18.29,94.35 -48.35,52.55 -18.27,-25.39 -27.64,-130.85 -20.08,-159.94 6.45,-24.86 -30.08,-74.73 11.86,-85.45 0,-1.91 1.82,-5.27 2.28,-6.4 15.07,-27.11 45.5,-32.04 63.88,-56.66 18.06,-24.18 30.07,-48.42 38.32,-77.22 15.82,-55.16 56.61,-9.66 52.92,-77.23 -2.06,-37.65 -11.78,-40.92 -43.8,-59.86 -12.85,-7.61 -16.95,-25.81 -27.37,-33.36 -12.04,-8.71 -47.28,-16.38 -62.5,-20.1 0,-12.05 16.45,-20.41 18.25,-34.27 18.74,-21.57 24.77,-36.89 -1.83,-53.47 -26.8,-16.69 -43.85,-23.87 -67.52,-45.69 -14.53,-13.38 -37.76,-10.26 -54.75,-17.37 -23.44,-9.8 -24.72,-30.16 -45.62,-43.87 -26.49,-17.36 -10.38,-46.97 -3.65,-68.08 22.04,0 111.26,-0.91 114.51,-22.39 10.53,-69.55 -38.98,-50.21 -79.38,-86.37 -10.77,-39.18 3.49,-79.37 -46.99,-87.73 -17.57,-2.9 -91.78,-18.74 -103.56,-30.62 -11.35,-11.43 0.39,-43.74 -0.46,-60.32 -1.92,-37.41 47.16,-9.59 67.07,-9.59 37.79,0 63.01,-86.59 79.84,-74.49 13.68,9.85 32.27,17.91 38.77,35.19 9.78,25.95 39.35,16.28 61.59,17.36 21.1,1.03 61.97,2.66 78.02,7.77 0,10.15 -1.22,24.88 -10.04,31.07 -14.14,32.03 -49.52,159.44 -16.42,183.24 14.01,10.08 24.18,15.77 24.18,34.73 0,20.42 -35.93,43.83 -0.46,56.21 18.55,6.48 61.37,6.33 82.12,2.28 39.82,17.87 64.51,28.35 109.04,26.05 15.67,-0.8 62.09,-13.17 71.62,4.11 14.86,26.96 -4.87,155.03 54.75,136.63 44.23,-13.66 52.23,4.8 62.5,-45.69 9.46,-2.39 26.34,15.34 40.6,15.08l49.28 -0.92c13.11,-0.23 58.01,-1.81 67.97,-5.03 20.99,-5.13 62.29,-60.28 84.86,-24.67 22.68,35.76 44.51,23.8 69.8,-3.66 23.63,-25.64 30.6,3.27 41.97,16 22.74,25.43 34.42,18.98 44.71,54.37 11.35,39.06 98.39,10.78 46.08,86.37 -21.52,31.11 2.65,40.75 -9.12,71.28 0,21.57 -19.21,44.17 -6.85,65.35 12.01,20.56 32.62,16.65 42.43,30.16 8.1,11.17 24.79,6.78 34.22,0 24.1,-17.35 21.01,-6.22 43.34,-0.46 28.13,7.27 5.9,43.87 30.11,43.87 30.38,0 61.54,-32.46 77.1,-55.75 7.05,-10.54 -26.54,-39.15 -35.59,-44.33 -74.09,-74.09 45.69,-46.36 49.28,-111.95 3.62,-66.18 -111.29,-22.74 -133.22,-24.22 -40.06,-2.72 0,-73.25 0,-90.02 -35.9,-11.44 -71.05,-11.51 -111.32,-32.9 -41.62,-22.1 -38.32,-71.57 0.92,-91.85 14.49,-6.55 64.01,-23.02 61.58,-41.12 -2.95,-21.88 41.38,-23.19 42.89,-56.21 0.76,-16.83 0.04,-34.59 17.79,-42.95 12.3,-5.78 35.19,-24.53 21.44,-42.5 -9.29,-12.16 -76.84,3.09 -90.33,10.97 -14.94,8.74 -30.3,18.35 -45.16,13.25 0,-18.18 2.29,-52.72 19.16,-56.2 32.24,-6.64 55.24,-13.46 78.47,-38.39 39.3,-42.16 46.35,-84.08 107.67,-84.08 0.41,-1.31 3.53,-1.4 5.01,-1.83 22.22,-7.22 46.69,10.51 67.98,10.51 27.52,0 45.24,-4.92 71.17,7.31 18.83,8.89 119.3,39.62 130.94,27.88 12.33,-12.43 3.37,-68.09 -13.23,-75.86 -12.09,-5.65 -38.78,-15.34 -38.78,-30.61 0,-28.74 -12.74,-21.56 -25.1,-41.58 -11.45,-18.53 -2.05,-58.93 -1.36,-80.43 0,-31.61 0.47,-60.8 -31.48,-74.94 -33.39,-14.79 -43.85,-40.27 -75.28,-6.85 -14.76,15.68 -36.18,18.73 -42.43,-6.86 -2.57,-10.51 -21.67,-71.41 -28.74,-73.11 -41.48,-9.98 -53.22,-39.68 -92.16,-27.87 -8.83,2.68 -39.92,-4.12 -40.14,-3.2 -8.47,2.02 7.82,59.95 2.73,73.11 0,23.74 -49.95,70.43 0.46,83.17 37.39,9.44 66.84,7.45 69.35,56.2 1.47,28.52 7.49,51.81 24.63,73.11 25.88,32.14 -38.66,29.2 -56.57,34.73 -52.53,16.21 -10.17,-61.98 -41.52,-81.34 -20.89,-12.91 -56.58,-25.96 -48.81,-56.2 -3.52,-28.01 6.63,-64.04 -32.85,-66.72 -35.58,-2.41 -71.7,-22.67 -106.75,-15.99 -94.46,18.03 -58.28,-95.53 -73.46,-156.28 -20.75,-5.3 -48.08,16.31 -62.95,30.16 -25.18,23.47 -41.02,19.68 -73,18.28 -63.66,-2.78 -81.74,-29.89 -142.34,-39.76 -41.64,-6.79 -32.29,-18.04 -80.75,-11.88 -42.94,25.99 11.98,71.53 -40.6,107.84 -18.52,12.78 -8.41,87.37 -3.65,104.65 4.86,17.6 3.17,67.16 -5.02,83.62 -25.47,51.2 -77.92,5.33 -106.76,26.96 -20.05,-62.88 -41.07,-97.71 -117.25,-74.48 -75.95,23.15 -179.54,23.88 -217.61,-57.12 -30.8,-65.51 -30.28,-35.25 40.15,-63.98 52.85,-21.57 -22.45,-85.17 -53.38,-83.16 -51.39,-12.94 -67.42,-8.91 -99,-54.84 -20.22,-29.39 -45.67,-64.55 -31.94,-100.98 4.19,-11.14 4.56,-51.73 5.48,-52.55 15.36,-13.74 31.96,-21.22 50.64,-26.05 15.98,-4.12 7.73,-20.06 17.33,-27.42 5.13,3.84 31.26,13.89 37.87,13.25 14.88,1.88 24.6,25.1 42.89,18.74 13.29,-4.63 10.03,-24.26 10.03,-36.56 0,-24.19 -19.57,-91.9 5.93,-104.64 17.24,-8.62 38.87,-10.43 46.08,-33.81 11.74,-38.01 -27.96,-46.7 -50.18,-66.26 -57.64,-28.97 -53.58,-34.65 -101.28,0.91 -13.78,10.28 -103.12,45.68 -106.3,42.5 -17.9,-17.9 -20.74,-49.17 -33.31,-71.74 -24.72,-44.4 -56.69,-49.15 -103.56,-58.95 -71.95,-15.04 -65.42,-72.69 -104.93,-116.98 -3.87,-30.8 -17.31,-34.76 -34.22,-57.58 -17.47,-23.56 8.45,-35.86 13.23,-54.83 3.55,-14.05 -1.39,-27.58 3.2,-42.5 7.74,-25.18 20.46,-34.59 19.16,-64.43 -0.69,-15.74 -18.42,-76.31 -9.58,-76.31 43.66,0 50.35,-29.3 61.13,-61.69 0,-28.22 -14.45,-49.59 -10.49,-79.05 3.55,-26.47 13.44,-47.64 7.76,-74.94 -2.58,-12.4 -18.25,-30.36 -18.25,-40.22 0,-22.66 139.94,-11.8 144.62,-28.78 3.38,-12.23 -7.23,-27.72 1.82,-37.93 11.81,-13.3 24.82,-12.37 10.95,-32.45 -13.78,-19.93 -29.66,-32.36 -21.44,-60.77 23.54,-25.11 39.1,-41.91 22.35,-71.74 -13.61,-24.22 -30.24,-47.14 -1.36,-68.09 39.37,-28.57 15.51,-122.21 15.51,-163.59 0,-54.8 -25.12,-36.69 -64.79,-23.76 -39.05,12.74 -100.78,-2.13 -137.32,-21.02 -33.76,-17.44 -21.19,-8.93 -43.34,-39.76 0,-42.7 32.63,-23.93 48.36,-53.92 17.65,-33.68 25.34,-38.6 10.49,-77.68 -18.15,-47.73 -32.1,-145.35 36.04,-162.67 37.18,-9.44 47.95,35.64 75.74,35.64 33.6,0 17.73,14.41 37.41,31.99 8.32,7.44 40.89,17.05 53.83,24.21 24.25,13.4 19.39,57.94 46.08,63.98 19.43,-7.12 54.19,1.27 71.17,10.05 21.36,11.03 34.17,-14.04 53.83,-4.57 35.6,17.14 69.71,17.07 107.21,39.3 31.49,18.68 43.63,-0.73 73.46,-6.86 22.1,-4.53 96.46,-5.38 111.77,-16.45 14.38,0 32.9,10.51 42.88,10.51 11.05,33.17 -27.75,54.81 33.31,58.95 28.32,1.92 69.34,7.29 83.03,-21.93 17.36,-37.03 1.91,-35.19 47.45,-35.19 38.64,0 28.07,-58.42 32.84,-83.62 3.57,-18.82 15.06,-37.15 15.06,-56.66 0,-58.92 64.2,-57.45 67.98,-118.81 1.19,-19.28 -37.07,-40.54 -48.82,-60.78 52.27,-32.45 62.09,11.7 73.91,-64.43 8.38,-53.92 -13.74,-80.68 -46.08,-118.35 -12.94,-15.06 -66.27,-28.79 -67.98,-36.1 -2.62,-11.14 2.33,-28.18 12.78,-33.36 10.28,-5.11 21.44,-1.08 30.56,-4.56 10.3,-3.92 4.09,-33.3 25.1,-27.88 22.44,5.8 27.37,-4.09 27.37,-24.67 -32.71,-10.9 -42.64,-24.45 -32.39,-59.87 -26.71,-43.75 -48.09,-3.18 -79.38,-36.55 -23.28,-24.84 -2.59,-86.7 -37.87,-95.51 -25.46,-6.36 -38.14,-9.39 -55.2,9.14 -31.33,34 -42.04,-36.43 -47.91,-49.8 -4.57,-10.43 -26.46,-26.93 -35.12,-35.65 -32.35,-32.53 9.24,-69.35 -30.11,-112.86 -21.42,-23.7 -6.45,-39.6 -9.13,-67.18 -14.7,-47.99 -39.14,-51.72 -65.69,-87.28 -23.18,-31.03 -9.61,-57.12 -52.01,-69.45 -26.37,-7.66 -27.83,-19.53 -27.83,-44.78 0,-28.4 0.38,-28.54 28.28,-26.51 30.27,2.2 52.3,-2.02 83.03,5.49 46.55,11.39 16.67,-94.11 9.59,-118.36 13.79,-32.94 -5.2,-70.36 5.47,-100.53 10.07,-28.51 27.83,-49.02 27.83,-79.96 0,-63.6 4.69,-33.5 53.38,-53.47 32.82,-13.45 19.51,-56.41 60.67,-18.27 32.95,30.52 50.5,48.36 89.88,38.84 5.42,-21.68 4.19,-79.94 -14.14,-95.05 -42.58,-35.13 -85.03,-19.85 -97.63,-85.45 2.5,-23.3 0.63,-51.08 -20.08,-64.89 -17.5,-11.66 -53.66,-1.17 -63.87,-16.45 -11.39,-17.03 13.89,-86.86 21.44,-105.55 7.36,-18.2 22.09,-49.76 16.88,-70.38 -10.08,-39.92 20.5,-62.84 -27.37,-74.48l-47.69 -22.13c38.75,-52.44 60.81,-125.44 106.24,-178.48 65.35,-76.32 78.08,-96.73 177.01,-102.35 44.79,-2.54 71.34,-48.46 132.3,-53 65.38,-4.87 130.68,-17.82 196.17,-14.63 66.87,3.25 132.33,20.79 198,33.82 22.49,4.46 39.93,-14.23 64.01,-7.31 15.97,4.59 25.23,20.91 41.97,26.04 37.68,11.56 81.33,-17.82 121.81,-17.82 65.47,0 103.1,38.84 171.08,38.84 17.77,0 34.54,4 50.77,9.49l0 0c43.13,14.61 82.48,39.82 126.69,28.89 34.86,-8.61 47.85,14.52 76.64,12.34 22.63,-1.71 51.5,-24.99 73.45,-8.22 79.19,60.53 146.78,120.61 248.64,73.56 48,-22.17 76.37,23.99 110.86,11.88 44.25,-15.54 51.5,20.77 93.52,24.68 49.9,4.65 114.19,-2.45 163.32,-18.28 42.98,-13.85 51.23,-68.95 106.3,-58.49 29.92,5.69 58.99,33.72 86.68,47.07 50.39,24.3 103.21,-20.84 148.26,24.21 15.07,15.07 32.13,31.77 50.46,45.91 18.59,-19.14 39.64,-123.32 69.07,-111.25 14.63,5.99 42.04,-2.99 44.71,20.56 1.58,13.9 -0.75,31.65 6.39,43.87 11.42,19.56 34.12,22.24 41.51,46.61 16.06,52.89 37.62,31.37 68.89,50.72 13.11,8.1 70.71,31.1 70.71,3.65l16.65 -28.32c5.59,-13.9 30.78,-8.64 41.75,-4.12 25.08,10.33 61.87,-12.4 86.68,-21.02 29.98,-10.41 7.06,-100 24.17,-124.74 33.76,-48.78 115.19,-27.66 155.57,-79.97 14.6,-30.23 22.18,-72.99 27.37,-106.46 4.49,-28.9 9.13,-54.43 9.13,-84.08 0,-64.41 38.29,-60.3 83.03,-32.44 13.02,8.11 34.4,16.63 49.27,10.51 17.5,-7.21 16.12,-36.27 29.19,-49.34 17.33,-7.92 34.43,-16.41 52.01,-23.77 14.04,-5.87 35.15,1.24 51.34,-3.21 27.12,-7.46 38.77,-49.35 60.67,-49.35 28.5,0 44.24,-34.06 75.28,-36.56 11.97,-0.96 24.03,0 36.05,0l79.24 4.08c1.55,0.48 2.31,1.37 3.33,1.4 25.25,0.95 116.9,28.34 143.25,38.84 102.78,40.96 136.92,55.33 210.32,-42.95 24.53,-32.85 58.13,-38.38 96.71,-28.79 35.64,8.86 47.66,53.61 80.3,70.83 23.67,12.48 37.64,43.84 56.57,63.97 24.27,25.81 35.32,21.73 67.52,26.96 26.3,4.27 29.86,15.92 48.82,30.16 11.41,8.57 80.81,-5.27 101.73,-6.85 41.96,-3.18 110.2,-71.21 144.17,-98.7 51.65,-41.8 34.38,-76.55 35.58,-135.26 0.56,-27.44 -16.38,-56.01 -11.86,-84.54 5.12,-32.3 46.37,-47.24 74.37,-36.55 47.6,18.18 43.81,110 65.23,146.68 17.63,30.18 60.24,-5.98 82.12,-20.56 40.86,-27.24 -11.65,-129.5 -25.09,-161.77 -34.06,-81.71 80.01,-107.33 139.61,-122.46 32.81,-8.33 54.46,-0.31 78.46,-32.44 90.5,-121.18 169.39,-17.37 277.39,-17.37 24.31,0 44.63,-27.87 68.89,-16.45 33.57,15.8 39.58,56.66 84.4,56.66 43.05,0 106.53,-22.11 143.25,-44.32 32.44,-19.62 24.47,-64.31 29.2,-94.13 8.38,-52.78 20.07,-105.7 20.07,-160.39 0,-55.68 -58.96,-68.42 -59.31,-115.61 -0.4,-53.46 -5.59,-107.03 -2.28,-160.4 1.57,-25.39 11.25,-49.65 16.43,-73.8 -0.46,-20.04 32.49,2.21 42.42,-13.47 15.41,-24.3 -45.94,-50.26 -34.67,-81.8 10.42,-29.13 -6.54,-55.97 15.97,-83.62 22.6,-27.74 41.39,-32.04 56.57,-69.92 17.37,-43.38 39.74,-42.31 81.66,-44.32 52.81,-2.54 61.59,-40.35 94.13,-59.06 34.77,-0.72 69.88,-6.96 104.33,-2.17 15.79,2.19 88.89,12.79 107.21,12.79 31.14,0 66.83,-5.3 87.59,-31.07 27.43,-34.04 11.63,-94.13 70.26,-94.13 17.83,0 39.25,9.66 57.03,2.74 21.55,-8.39 31.11,-37.9 56.11,-37.47 72.75,1.26 92.15,8.3 157.86,-19.19 57.89,-24.21 34.56,-31.57 71.62,-71.29 45.18,-48.43 85.01,49.47 140.52,11.88 23.31,-15.78 84.31,-116.01 134.13,-76.31 26.09,20.79 69.12,27.22 92.61,-15.99 29.83,-54.86 52.7,-79.59 118.16,-88.19 42.09,-5.53 65.5,49.67 84.4,77.68 55.69,82.52 78.49,-50.54 142.8,0.91 25.48,20.38 41.7,16.87 57.94,48.9 11.61,22.89 0.5,52.71 13.23,74.94 27.25,47.58 36.03,64.83 97.17,67.63 100.83,4.63 108,-65.88 151.92,-135.72 26.57,-42.25 28.68,-62.11 80.3,-74.03 44.49,-10.27 55.8,-60.36 92.61,-91.39 16.76,-14.12 -9.66,-45.18 5.93,-60.77 31.39,-31.39 23.22,-78.66 33.3,-119.73 1.5,-6.12 5.13,-11.67 10.59,-16.93l-41.15 -35.16c-1.63,-1.85 -6.85,-6.86 -6.85,-9.14 -8.42,-2.76 -4.48,-39.87 -5.93,-47.52 -3,-15.89 -42.94,-5.88 -61.13,-7.31 -11.87,-0.94 -35.95,-9.72 -46.08,-15.99 -23.65,-14.62 6.06,-64.4 11.86,-87.74 4.26,-17.12 4.83,-41.34 15.52,-55.75 16.28,-21.96 31.79,-1.8 48.81,-15.08 27.69,-21.08 47.9,-87.18 47.9,-121.55 0,-22.99 73.89,-22.39 93.53,-22.39 6.92,-21.71 -8.04,-39.76 22.81,-44.78 24.16,-3.94 50.21,7.33 72.54,-1.37 21.37,-8.32 29.44,-26.11 45.62,-36.1l66.61 -41.13c40.53,-25.02 39.72,-96.92 83.03,-48.89 20.08,22.28 96.31,94.13 126.37,94.13 1.34,-0.25 5.63,-1.7 7.3,-0.46 3.8,-2.79 37.08,-1.18 48.36,-7.31 6.78,-3.69 35.88,-16.66 41.06,-8.22 6.26,10.22 7.97,38.33 10.49,51.63 5.16,27.25 19.97,15.11 32.4,35.65 -7.11,9.27 -7.97,38.28 1.36,46.61 24.33,21.75 21.87,12.47 19.17,46.15 5.48,29.49 -3.78,54.44 9.12,84.54 -9.57,7.95 15.22,82.01 26,86.82 7.09,3.17 32.46,-5.51 36.96,3.65 16.04,32.67 -2.43,30.33 36.04,53.01 12.53,7.39 52.01,10.07 52.01,28.33 0,16.88 -8.05,27.27 1.37,42.5 23.65,38.25 22.86,9.88 53.38,-5.49 80.98,-40.76 -71.19,-45.21 -31.94,-81.79 6.01,-5.59 56.76,16.15 71.17,19.65 15.33,3.72 49.57,40.7 64.33,52.09 22.97,17.28 78.78,27.08 72.99,55.29 -8.28,40.38 4.53,47.26 38.78,53.92 24.35,4.74 39.95,33.2 65.7,41.13 44.84,13.8 117.37,24.22 164.24,24.22 53.74,0 10.48,-39.12 46.53,-48.44 6.5,-1.67 73.63,-16.46 46.99,-25.13 -43.27,-14.1 -40.37,-67.32 -79.38,-69.46 -40.02,-2.19 -30.11,-73.99 -21.44,-105.56 16.57,-15.36 10.25,-32.95 36.49,-46.15 28.56,-14.38 55.02,-12.52 27.83,-46.15 -27.24,-33.71 18.71,-32.62 18.71,-69.46 -46.4,-15.46 -80.47,-62.74 -130.48,-84.99 -11.81,-5.26 -25.89,-28.89 -37.87,-14.17 -15.52,19.09 -12.44,39.48 -42.88,19.19 -25.58,-17.05 -48.54,-12.36 -59.31,17.37 -12.55,43.36 -1.58,44.68 -44.71,17.82 -40.73,-25.38 -96.6,-60.39 -142.8,-71.74 -40.11,-9.85 -130.14,-1.62 -149.64,-40.21 10.83,-12.34 31.6,-27.57 39.69,-39.3 10.64,-15.45 -0.25,-28.05 24.18,-40.21 9.16,-4.55 82.81,-34.06 50.19,-52.1 -33.66,-18.6 -24.17,-59.83 -46.08,-90.02 -18.85,-25.99 38.39,-80.42 62.5,-80.42 7.18,21.55 -1.43,35.07 17.79,56.2 24.82,27.3 27.52,63.04 50.19,88.2 5.66,6.27 57.43,24.54 62.5,20.1 17.15,-14.98 0.91,-33.1 29.66,-48.89 10.48,-5.76 38.8,-0.07 44.25,-12.34 10.06,-22.6 33.73,-32.25 42.88,-56.66 8.6,-22.97 -21.24,-45.85 -8.67,-74.48 34.29,-33.15 22.54,-35.6 69.35,-46.61 25,-5.88 56.12,-21.09 78.47,-32.91 53.16,-28.13 27.9,-73.07 90.33,-29.7 26.91,18.7 66.49,16.94 94.89,31.08 11.09,5.51 84.57,80.53 82.58,84.53 -19.97,39.94 -39.88,32.28 -26.92,85.91 17.11,0 71.77,-5.27 86.69,-11.42 47.56,-19.6 15.02,-38.6 82.57,-20.57 35.87,9.47 54.62,8.44 90.79,26.51 26.26,13.13 53.18,7.09 80.29,13.71 23.06,5.64 35.5,18.73 62.05,18.73 20.22,0 43.4,2.44 58.85,15.54 29.49,24.98 24.93,44.43 59.31,10.05 11.72,-11.72 50.97,-43.71 52.92,-58.95 1.75,-13.62 -19.45,-25.03 -15.97,-38.84 4.94,-19.56 24.64,-29.01 24.64,-52.09 0,-28.11 -29.32,-34.35 -16.88,-67.17 13.1,-10.53 15.87,-35.2 29.2,-47.07 7.81,-6.94 28.46,6.4 38.78,6.4 145.06,0 27.74,-142.74 48.81,-208.83 60.81,0 65.77,-0.32 106.3,37.01 33.14,30.54 160.98,54.81 199.82,30.62 24.78,-15.44 32.82,-76.65 47,-77.68 35.99,-2.64 51.51,32.57 99.91,10.96 42.88,-7.52 81.2,-21.02 126.83,-21.02 40.58,0 47.84,-1.56 80.29,-26.04 54.62,-41.19 28.44,-33.53 6.84,-83.17 -9.06,-20.81 9.5,-109.87 20.08,-130.23 31.74,-44.32 33.68,-21.46 80.75,-20.56l94.44 1.82c21.31,0.4 39.77,11.73 62.04,10.51 13.64,-0.74 82.59,-51.13 78.93,-65.34 -6.13,-23.77 -14.29,-48.93 -18.65,-74.28 1.38,-76.27 -17.89,-79.47 -76.34,-92.76 -66.67,-15.15 -51.72,-48.9 -98.21,-47.03 -23.2,0.93 -101.8,1.96 -114.31,-21.41 -30.1,-56.25 -50.26,-21.96 -86.53,-48.33 -17.75,-12.9 5.9,-34.79 -31.68,-61.45 -13.14,-9.31 -1.7,-63.92 -50.43,-89.93 -19.98,-10.65 -59.79,21.58 -89.33,21.58 -62.98,0 -50.29,-18.66 -76.61,-21.76 -31.03,-3.67 -53.49,12.77 -91.59,-15.44 -66.5,-49.23 -41.75,-41.31 -85.43,-103.82 -2.6,-3.73 -16.87,-22.03 -20.31,-24.34 -48.71,-73.59 -56.36,-72.53 -142.85,-90.69 -33.47,-7.02 -94.54,5.42 -136.92,-3.74 -14.93,-3.23 -93.75,-27.07 -86.05,-46.59 1.86,-4.72 39.9,-14.72 51.72,-21.33 32.81,-18.34 71.23,-31.51 81.77,-71.28 8.45,-31.9 25.09,-26.3 -1.67,-54.3 -8.21,-8.59 -36.95,-43.85 -36.19,-55.22 1.82,-27.56 27.38,-12.96 15.81,-78.33 -3.93,-22.19 5.74,-41.6 23.87,-53.39 42.07,-27.36 20.73,-4.72 40.98,-8.09 16.31,-2.72 75.22,-103.81 136.14,-75.26 15.7,7.36 11.79,39.12 73.76,58.71 17.63,5.58 20.78,11.57 45.05,17.46 11.53,2.79 45.54,11.44 49.32,21.95 8.48,23.56 -15.15,33.67 31.5,48.79 23.42,7.6 45.36,71.9 87.57,51.72 12.16,-5.81 4.24,-34.59 17.45,-60.79 28.24,-56 35.43,-40.35 -17.07,-87.47 -40.67,-36.5 39.03,-25.74 25.98,-74.81 -4.29,-16.11 27.66,-90.66 18.55,-98.2l0 0c50.71,-71.98 159.37,-135.47 252.75,-128.4 78.3,5.93 180.18,148.73 255.94,110.58 24.66,-15.89 78.39,9.07 109.95,1.83 39.8,-9.12 75.96,3.2 116.33,3.2l45.3 -7.71 0 0zm-12790.79 -4394.96l22081.08 0 0 19000 -22081.08 0 0 -19000z"/>
  <path class="fil1 str1" d="M19712.43 18176.66l2773.03 0 0 1592.9 -2773.03 0 0 -1592.9z"/>
  <path class="fil2" d="M20615.29 18370.69l57.09 -27.52 5.71 0 0 197.2c0,13.12 0.53,21.35 1.64,24.58 1.12,3.18 3.36,5.71 6.82,7.41 3.47,1.71 10.53,2.7 21.17,2.94l0 6.35 -88.19 0 0 -6.35c11.05,-0.24 18.16,-1.18 21.34,-2.88 3.23,-1.65 5.47,-3.88 6.76,-6.7 1.24,-2.83 1.88,-11.29 1.88,-25.35l0 -126.29c0,-16.99 -0.59,-27.93 -1.7,-32.75 -0.83,-3.7 -2.3,-6.41 -4.41,-8.11 -2.18,-1.71 -4.71,-2.59 -7.71,-2.59 -4.29,0 -10.23,1.76 -17.81,5.35l-2.59 -5.29z"/>
  <path id="1" class="fil2" d="M21249.6 18336.47l0 157.16 39.98 -36.63c8.52,-7.82 13.46,-12.76 14.81,-14.82 0.95,-1.41 1.42,-2.76 1.42,-4.17 0,-2.29 -1,-4.23 -2.89,-5.94 -1.88,-1.65 -4.99,-2.59 -9.4,-2.82l0 -5.65 68.61 0 0 5.65c-9.35,0.23 -17.17,1.7 -23.4,4.35 -6.23,2.7 -13.05,7.47 -20.52,14.29l-40.63 37.22 40.34 51.33c11.29,14.05 18.81,23.04 22.58,26.98 5.58,5.24 10.4,8.65 14.58,10.17 2.94,1.12 7.99,1.71 15.17,1.71l0 6.35 -76.73 0 0 -6.35c4.41,-0.12 7.35,-0.76 8.88,-1.94 1.58,-1.24 2.35,-2.88 2.35,-5.06 0,-2.64 -2.3,-6.88 -6.88,-12.7l-48.27 -61.79 0 52.21c0,10.23 0.7,16.93 2.11,20.17 1.47,3.17 3.47,5.46 6.12,6.88 2.64,1.35 8.35,2.11 17.17,2.23l0 6.35 -80.08 0 0 -6.35c7.99,0 14.05,-1 18.05,-2.94 2.41,-1.23 4.23,-3.17 5.46,-5.76 1.71,-3.76 2.59,-10.29 2.59,-19.52l0 -143.94c0,-18.05 -0.41,-29.1 -1.18,-33.16 -0.82,-4.05 -2.11,-6.82 -3.99,-8.35 -1.83,-1.58 -4.24,-2.35 -7.18,-2.35 -2.41,0 -6.05,1 -10.82,2.94l-2.93 -6.35 46.74 -19.4 7.94 0z"/>
  <path id="2" class="fil2" d="M21426.34 18452.77c11.41,-11.53 18.17,-18.17 20.22,-19.93 5.12,-4.36 10.65,-7.77 16.59,-10.18 5.93,-2.41 11.81,-3.64 17.63,-3.64 9.88,0 18.29,2.88 25.4,8.64 7.06,5.76 11.82,14.11 14.17,25.11 11.88,-13.88 21.88,-22.93 30.05,-27.28 8.17,-4.3 16.58,-6.47 25.22,-6.47 8.35,0 15.82,2.17 22.35,6.47 6.46,4.29 11.64,11.34 15.4,21.16 2.53,6.65 3.82,17.11 3.82,31.4l0 67.97c0,9.82 0.71,16.58 2.18,20.23 1.12,2.46 3.23,4.64 6.23,6.4 3.06,1.77 8,2.65 14.88,2.65l0 6.35 -77.26 0 0 -6.35 3.29 0c6.7,0 11.99,-1.29 15.76,-3.94 2.64,-1.82 4.52,-4.76 5.64,-8.76 0.47,-1.94 0.71,-7.47 0.71,-16.58l0 -67.91c0,-12.88 -1.53,-21.93 -4.65,-27.22 -4.52,-7.35 -11.7,-11.06 -21.63,-11.06 -6.06,0 -12.23,1.53 -18.41,4.59 -6.11,3 -13.58,8.7 -22.34,16.93l-0.35 1.94 0.7 7.41 0 75.32c0,10.7 0.59,17.4 1.77,20.05 1.23,2.59 3.46,4.82 6.76,6.58 3.29,1.77 8.93,2.65 16.87,2.65l0 6.35 -79.37 0 0 -6.35c8.64,0 14.58,-1 17.81,-3.06 3.24,-2.06 5.47,-5.17 6.7,-9.29 0.59,-1.94 0.89,-7.58 0.89,-16.93l0 -67.91c0,-12.88 -1.88,-22.17 -5.65,-27.87 -5.05,-7.41 -12.05,-11.11 -21.11,-11.11 -6.17,0 -12.28,1.7 -18.34,5.05 -9.47,5.06 -16.82,10.82 -21.93,17.17l0 84.67c0,10.29 0.7,16.93 2.12,20.05 1.41,3.06 3.52,5.35 6.35,6.94 2.76,1.53 8.4,2.29 16.93,2.29l0 6.35 -77.97 0 0 -6.35c7.24,0 12.29,-0.76 15.17,-2.29 2.89,-1.59 5.06,-4 6.59,-7.41 1.47,-3.35 2.23,-9.88 2.23,-19.58l0 -60.33c0,-17.28 -0.53,-28.45 -1.53,-33.51 -0.82,-3.82 -2.05,-6.41 -3.82,-7.82 -1.7,-1.47 -4.05,-2.18 -6.99,-2.18 -3.24,0 -7.06,0.89 -11.53,2.59l-2.58 -6.35 47.62 -19.4 7.41 0 0 33.75z"/>
  <path id="3" class="fil2" d="M20763.46 18466.06c0,-26.64 4,-49.51 12.05,-68.74 8.06,-19.22 18.7,-33.57 32.05,-42.98 10.29,-7.47 20.99,-11.17 31.98,-11.17 17.94,0 33.99,9.11 48.22,27.34 17.81,22.64 26.69,53.27 26.69,91.96 0,27.05 -3.88,50.09 -11.7,69.03 -7.82,18.93 -17.76,32.63 -29.87,41.21 -12.11,8.53 -23.81,12.82 -35.04,12.82 -22.29,0 -40.81,-13.11 -55.62,-39.39 -12.53,-22.17 -18.76,-48.86 -18.76,-80.08zm33.87 4.23c0,32.1 3.94,58.33 11.82,78.67 6.52,17.11 16.28,25.63 29.22,25.63 6.17,0 12.58,-2.76 19.22,-8.34 6.65,-5.59 11.65,-14.88 15.11,-27.99 5.24,-19.7 7.88,-47.57 7.88,-83.43 0,-26.64 -2.76,-48.86 -8.23,-66.62 -4.11,-13.23 -9.46,-22.58 -15.99,-28.05 -4.65,-3.82 -10.35,-5.7 -16.99,-5.7 -7.76,0 -14.7,3.53 -20.76,10.52 -8.23,9.53 -13.87,24.46 -16.81,44.92 -3,20.41 -4.47,40.52 -4.47,60.39z"/>
  <path id="4" class="fil2" d="M20939.85 18466.06c0,-26.64 4,-49.51 12.05,-68.74 8.06,-19.22 18.7,-33.57 32.05,-42.98 10.29,-7.47 20.99,-11.17 31.98,-11.17 17.94,0 33.99,9.11 48.22,27.34 17.81,22.64 26.69,53.27 26.69,91.96 0,27.05 -3.88,50.09 -11.7,69.03 -7.82,18.93 -17.76,32.63 -29.87,41.21 -12.11,8.53 -23.81,12.82 -35.04,12.82 -22.29,0 -40.81,-13.11 -55.62,-39.39 -12.53,-22.17 -18.76,-48.86 -18.76,-80.08zm33.87 4.23c0,32.1 3.94,58.33 11.82,78.67 6.52,17.11 16.28,25.63 29.22,25.63 6.17,0 12.58,-2.76 19.22,-8.34 6.65,-5.59 11.65,-14.88 15.11,-27.99 5.24,-19.7 7.88,-47.57 7.88,-83.43 0,-26.64 -2.76,-48.86 -8.23,-66.62 -4.11,-13.23 -9.46,-22.58 -15.99,-28.05 -4.65,-3.82 -10.35,-5.7 -16.99,-5.7 -7.76,0 -14.7,3.53 -20.76,10.52 -8.23,9.53 -13.87,24.46 -16.81,44.92 -3,20.41 -4.47,40.52 -4.47,60.39z"/>
  <path class="fil2" d="M20783.07 19313.05l0 6.7c-15.12,1.47 -27.46,4.47 -37.05,9 -9.58,4.53 -19.05,11.41 -28.34,20.7 -9.35,9.23 -17.11,19.58 -23.22,30.92 -6.12,11.41 -11.23,24.93 -15.35,40.57 16.47,-11.23 32.99,-16.87 49.63,-16.87 15.93,0 29.69,6.41 41.39,19.28 11.7,12.82 17.52,29.34 17.52,49.51 0,19.46 -5.88,37.28 -17.7,53.33 -14.23,19.46 -33.04,29.22 -56.44,29.22 -15.93,0 -29.52,-5.29 -40.63,-15.82 -21.81,-20.57 -32.69,-47.21 -32.69,-79.9 0,-20.87 4.17,-40.75 12.58,-59.56 8.35,-18.82 20.35,-35.51 35.87,-50.1 15.58,-14.52 30.45,-24.34 44.68,-29.39 14.23,-5.06 27.46,-7.59 39.75,-7.59l10 0zm-106.9 120.48c-2.11,15.52 -3.17,28.04 -3.17,37.57 0,11.05 2.06,22.99 6.11,35.92 4.06,12.94 10.12,23.17 18.11,30.75 5.82,5.41 12.94,8.12 21.29,8.12 9.93,0 18.87,-4.71 26.69,-14.12 7.82,-9.46 11.76,-22.87 11.76,-40.33 0,-19.64 -3.88,-36.63 -11.64,-51.04 -7.82,-14.34 -18.82,-21.52 -33.1,-21.52 -4.36,0 -9.06,0.95 -14,2.77 -5,1.82 -12.35,5.82 -22.05,11.88z"/>
  <path id="1" class="fil2" d="M20814.11 19435.94c0,-26.64 4,-49.51 12.05,-68.74 8.06,-19.22 18.7,-33.57 32.05,-42.98 10.29,-7.47 20.99,-11.17 31.98,-11.17 17.94,0 33.99,9.11 48.22,27.34 17.81,22.64 26.69,53.27 26.69,91.96 0,27.05 -3.88,50.09 -11.7,69.03 -7.82,18.93 -17.76,32.63 -29.87,41.21 -12.11,8.53 -23.81,12.82 -35.04,12.82 -22.29,0 -40.81,-13.11 -55.62,-39.39 -12.53,-22.17 -18.76,-48.86 -18.76,-80.08zm33.87 4.23c0,32.1 3.94,58.33 11.82,78.67 6.52,17.11 16.28,25.63 29.22,25.63 6.17,0 12.58,-2.76 19.22,-8.34 6.65,-5.59 11.65,-14.88 15.11,-27.99 5.24,-19.7 7.88,-47.57 7.88,-83.43 0,-26.64 -2.76,-48.86 -8.23,-66.62 -4.11,-13.23 -9.46,-22.58 -15.99,-28.05 -4.65,-3.82 -10.35,-5.7 -16.99,-5.7 -7.76,0 -14.7,3.53 -20.76,10.52 -8.23,9.53 -13.87,24.46 -16.81,44.92 -3,20.41 -4.47,40.52 -4.47,60.39z"/>
  <path id="2" class="fil2" d="M21124.21 19422.65c11.41,-11.53 18.17,-18.17 20.22,-19.93 5.12,-4.36 10.65,-7.77 16.59,-10.18 5.93,-2.41 11.81,-3.64 17.63,-3.64 9.88,0 18.29,2.88 25.4,8.64 7.06,5.76 11.82,14.11 14.17,25.11 11.88,-13.88 21.88,-22.93 30.05,-27.28 8.17,-4.3 16.58,-6.47 25.22,-6.47 8.35,0 15.82,2.17 22.35,6.47 6.46,4.29 11.64,11.34 15.4,21.16 2.53,6.65 3.82,17.11 3.82,31.4l0 67.97c0,9.82 0.71,16.58 2.18,20.23 1.12,2.46 3.23,4.64 6.23,6.4 3.06,1.77 8,2.65 14.88,2.65l0 6.35 -77.26 0 0 -6.35 3.29 0c6.7,0 11.99,-1.29 15.76,-3.94 2.64,-1.82 4.52,-4.76 5.64,-8.76 0.47,-1.94 0.71,-7.47 0.71,-16.58l0 -67.91c0,-12.88 -1.53,-21.93 -4.65,-27.22 -4.52,-7.35 -11.7,-11.06 -21.63,-11.06 -6.06,0 -12.23,1.53 -18.41,4.59 -6.11,3 -13.58,8.7 -22.34,16.93l-0.35 1.94 0.7 7.41 0 75.32c0,10.7 0.59,17.4 1.77,20.05 1.23,2.59 3.46,4.82 6.76,6.58 3.29,1.77 8.93,2.65 16.87,2.65l0 6.35 -79.37 0 0 -6.35c8.64,0 14.58,-1 17.81,-3.06 3.24,-2.06 5.47,-5.17 6.7,-9.29 0.59,-1.94 0.89,-7.58 0.89,-16.93l0 -67.91c0,-12.88 -1.88,-22.17 -5.65,-27.87 -5.05,-7.41 -12.05,-11.11 -21.11,-11.11 -6.17,0 -12.28,1.7 -18.34,5.05 -9.47,5.06 -16.82,10.82 -21.93,17.17l0 84.67c0,10.29 0.7,16.93 2.12,20.05 1.41,3.06 3.52,5.35 6.35,6.94 2.76,1.53 8.4,2.29 16.93,2.29l0 6.35 -77.97 0 0 -6.35c7.24,0 12.29,-0.76 15.17,-2.29 2.89,-1.59 5.06,-4 6.59,-7.41 1.47,-3.35 2.23,-9.88 2.23,-19.58l0 -60.33c0,-17.28 -0.53,-28.45 -1.53,-33.51 -0.82,-3.82 -2.05,-6.41 -3.82,-7.82 -1.7,-1.47 -4.05,-2.18 -6.99,-2.18 -3.24,0 -7.06,0.89 -11.53,2.59l-2.58 -6.35 47.62 -19.4 7.41 0 0 33.75z"/>
  <path id="3" class="fil2" d="M21391.85 19306.35c4.76,0 8.88,1.7 12.29,5.05 3.35,3.41 5.05,7.53 5.05,12.29 0,4.82 -1.7,9 -5.05,12.41 -3.41,3.47 -7.53,5.17 -12.29,5.17 -4.82,0 -9,-1.7 -12.41,-5.17 -3.47,-3.41 -5.17,-7.59 -5.17,-12.41 0,-4.76 1.7,-8.88 5.05,-12.29 3.41,-3.35 7.59,-5.05 12.53,-5.05zm14.17 82.55l0 127c0,9.82 0.7,16.34 2.17,19.58 1.41,3.29 3.53,5.7 6.35,7.29 2.82,1.59 8,2.41 15.47,2.41l0 6.35 -76.56 0 0 -6.35c7.65,0 12.82,-0.76 15.41,-2.23 2.64,-1.47 4.7,-3.94 6.29,-7.35 1.53,-3.41 2.29,-10 2.29,-19.7l0 -61.03c0,-16.99 -0.53,-27.99 -1.53,-33.05 -0.82,-3.64 -2.05,-6.17 -3.82,-7.58 -1.7,-1.47 -4.06,-2.18 -7,-2.18 -3.23,0 -7.11,0.89 -11.7,2.59l-2.41 -6.35 47.45 -19.4 7.59 0z"/>
  <path class="fil2" d="M22664.19 19676.66c0,-17.45 4.47,-34.48 13.46,-51.13 8.93,-16.61 21.77,-29.59 38.43,-38.86 16.69,-9.26 34.1,-13.92 52.16,-13.92 17.92,0 35.18,4.56 51.69,13.74 16.56,9.12 29.4,21.92 38.53,38.43 9.17,16.51 13.73,33.77 13.73,51.74 0,18.01 -4.56,35.27 -13.73,51.78 -9.13,16.51 -21.97,29.35 -38.53,38.53 -16.51,9.17 -33.77,13.78 -51.69,13.78 -18.06,0 -35.47,-4.66 -52.16,-13.97 -16.66,-9.36 -29.5,-22.34 -38.43,-38.95 -8.99,-16.65 -13.46,-33.68 -13.46,-51.17zm17.22 0c0,14.62 3.76,28.88 11.24,42.7 7.48,13.83 18.2,24.65 32.13,32.46 13.92,7.81 28.41,11.71 43.46,11.71 15,0 29.35,-3.85 43.08,-11.52 13.74,-7.67 24.46,-18.39 32.13,-32.17 7.67,-13.79 11.52,-28.18 11.52,-43.18 0,-14.96 -3.85,-29.36 -11.52,-43.14 -7.67,-13.78 -18.39,-24.5 -32.13,-32.12 -13.73,-7.62 -28.08,-11.43 -43.08,-11.43 -15.05,0 -29.54,3.9 -43.46,11.66 -13.93,7.76 -24.65,18.58 -32.13,32.46 -7.48,13.87 -11.24,28.08 -11.24,42.57zm103.57 -33.35l5.08 -16.94c11.53,2.78 20.7,8.61 27.52,17.55 6.87,8.98 10.3,19.85 10.3,32.59 0,16.19 -5.22,29.31 -15.71,39.42 -10.49,10.11 -24.98,15.15 -43.55,15.15 -12.14,0 -22.68,-2.31 -31.61,-6.92 -8.99,-4.56 -15.71,-11.15 -20.28,-19.61 -4.56,-8.52 -6.82,-18.25 -6.82,-29.16 0,-12.23 2.92,-22.39 8.8,-30.48 5.88,-8.09 13.88,-13.6 23.94,-16.56l4.23 16.37c-6.91,2.77 -12.23,6.82 -15.89,12.23 -3.72,5.41 -5.55,11.71 -5.55,19 0,10.58 3.76,19.33 11.28,26.2 7.53,6.87 18.35,10.3 32.37,10.3 14.06,0 24.69,-3.24 31.89,-9.74 7.19,-6.49 10.81,-14.86 10.81,-25.16 0,-8.28 -2.39,-15.57 -7.24,-21.83 -4.8,-6.25 -11.33,-10.39 -19.57,-12.41z"/>
  <path id="1" class="fil2" d="M22869.65 19381.5l-18.58 0c14.44,9.27 21.68,22.91 21.68,40.92 0,11.67 -3.19,22.39 -9.64,32.13 -6.4,9.78 -15.38,17.35 -26.86,22.76 -11.52,5.37 -24.74,8.05 -39.69,8.05 -14.59,0 -27.8,-2.45 -39.7,-7.29 -11.86,-4.9 -20.98,-12.19 -27.29,-21.92 -6.35,-9.69 -9.5,-20.61 -9.5,-32.6 0,-8.84 1.88,-16.7 5.6,-23.56 3.72,-6.87 8.61,-12.47 14.58,-16.8l-72.67 0 0 -24.83 202.07 0 0 23.14zm-73.05 78.46c18.72,0 32.69,-3.95 41.96,-11.9 9.26,-7.91 13.87,-17.27 13.87,-28.04 0,-10.86 -4.42,-20.08 -13.26,-27.7 -8.84,-7.57 -22.34,-11.38 -40.5,-11.38 -19.94,0 -34.62,3.85 -43.98,11.61 -9.36,7.72 -14.01,17.27 -14.01,28.6 0,11.06 4.46,20.27 13.45,27.71 8.98,7.38 23.14,11.1 42.47,11.1z"/>
  <path id="2" class="fil2" d="M22808.97 19328.96l-24.83 0 0 -76.76 24.83 0 0 76.76z"/>
  <path id="3" class="fil2" d="M22869.65 19225.1l-146.47 0 0 -22.29 20.69 0c-7.15,-4.56 -12.93,-10.68 -17.26,-18.3 -4.37,-7.62 -6.54,-16.27 -6.54,-26.01 0,-10.82 2.26,-19.71 6.73,-26.62 4.52,-6.92 10.77,-11.81 18.86,-14.63 -17.07,-11.67 -25.59,-26.77 -25.59,-45.39 0,-14.58 4,-25.83 12.04,-33.63 8.05,-7.86 20.42,-11.81 37.12,-11.81l100.42 0 0 24.84 -92.19 0c-9.88,0 -17.03,0.84 -21.4,2.44 -4.38,1.6 -7.86,4.52 -10.54,8.8 -2.68,4.23 -4,9.22 -4,14.91 0,10.35 3.44,18.91 10.26,25.73 6.86,6.82 17.82,10.2 32.87,10.2l85 0 0 24.84 -95.06 0c-11.01,0 -19.29,2.02 -24.79,6.07 -5.5,4.04 -8.28,10.67 -8.28,19.85 0,6.96 1.84,13.4 5.51,19.33 3.66,5.93 9.03,10.21 16.13,12.89 7.05,2.63 17.26,3.95 30.57,3.95l75.92 0 0 24.83z"/>
  <path id="4" class="fil2" d="M22851.31 18894.34c7.85,9.22 13.35,18.11 16.6,26.62 3.25,8.52 4.84,17.64 4.84,27.43 0,16.08 -3.9,28.45 -11.75,37.11 -7.81,8.65 -17.83,12.98 -30.01,12.98 -7.15,0 -13.69,-1.65 -19.62,-4.89 -5.93,-3.29 -10.63,-7.57 -14.2,-12.84 -3.58,-5.32 -6.31,-11.24 -8.14,-17.88 -1.27,-4.89 -2.49,-12.27 -3.72,-22.1 -2.35,-20.04 -5.22,-34.86 -8.51,-44.31 -3.39,-0.1 -5.55,-0.14 -6.44,-0.14 -10.07,0 -17.17,2.35 -21.31,7.05 -5.6,6.35 -8.37,15.81 -8.37,28.32 0,11.71 2.07,20.36 6.16,25.92 4.09,5.59 11.38,9.68 21.78,12.37l-3.39 24.27c-10.4,-2.21 -18.82,-5.84 -25.21,-10.92 -6.4,-5.08 -11.29,-12.41 -14.77,-22.01 -3.44,-9.55 -5.18,-20.7 -5.18,-33.3 0,-12.51 1.46,-22.72 4.42,-30.57 2.97,-7.81 6.64,-13.6 11.11,-17.27 4.46,-3.67 10.11,-6.25 16.93,-7.76 4.23,-0.8 11.85,-1.22 22.81,-1.22l32.93 0c23,0 37.53,-0.52 43.69,-1.55 6.17,-0.99 12.05,-3.06 17.69,-6.07l0 25.96c-5.22,2.5 -11.34,4.1 -18.34,4.8zm-55.04 1.98c3.67,9.03 6.78,22.57 9.32,40.64 1.45,10.25 3.1,17.49 4.93,21.73 1.84,4.23 4.52,7.48 8,9.78 3.53,2.31 7.43,3.48 11.76,3.48 6.54,0 12.04,-2.49 16.42,-7.52 4.37,-5.04 6.58,-12.38 6.58,-22.02 0,-9.55 -2.07,-18.06 -6.25,-25.54 -4.14,-7.43 -9.84,-12.93 -17.03,-16.41 -5.6,-2.69 -13.83,-4 -24.7,-4l-9.03 -0.14z"/>
  <path id="5" class="fil2" d="M22925.81 18833.05l-202.63 0 0 -22.57 19.24 0c-7.44,-5.32 -13.03,-11.34 -16.75,-18.07 -3.72,-6.68 -5.6,-14.81 -5.6,-24.36 0,-12.51 3.2,-23.52 9.65,-33.07 6.39,-9.55 15.47,-16.74 27.14,-21.63 11.71,-4.85 24.5,-7.3 38.47,-7.3 14.91,0 28.37,2.69 40.36,8.05 11.95,5.36 21.12,13.17 27.52,23.42 6.35,10.21 9.54,20.98 9.54,32.27 0,8.28 -1.74,15.71 -5.22,22.25 -3.48,6.58 -7.85,11.94 -13.17,16.18l71.45 0 0 24.83zm-128.5 -22.57c18.77,0 32.69,-3.81 41.67,-11.39 8.99,-7.62 13.45,-16.84 13.45,-27.65 0,-11.01 -4.65,-20.42 -13.97,-28.23 -9.31,-7.85 -23.7,-11.76 -43.22,-11.76 -18.63,0 -32.55,3.81 -41.82,11.48 -9.26,7.67 -13.87,16.79 -13.87,27.42 0,10.54 4.94,19.85 14.77,27.94 9.87,8.14 24.17,12.19 42.99,12.19z"/>
  <path id="6" class="fil2" d="M22825.91 18685.97l-3.96 -24.55c9.84,-1.37 17.36,-5.22 22.63,-11.53 5.22,-6.3 7.85,-15.14 7.85,-26.43 0,-11.43 -2.3,-19.9 -6.96,-25.45 -4.61,-5.5 -10.06,-8.28 -16.32,-8.28 -5.6,0 -10.02,2.5 -13.22,7.44 -2.21,3.48 -4.98,11.94 -8.42,25.4 -4.56,18.15 -8.51,30.71 -11.85,37.77 -3.39,7 -7.99,12.32 -13.92,15.94 -5.88,3.62 -12.42,5.46 -19.57,5.46 -6.54,0 -12.56,-1.51 -18.11,-4.47 -5.55,-3.01 -10.16,-7.06 -13.83,-12.18 -2.82,-3.86 -5.22,-9.13 -7.19,-15.76 -1.98,-6.68 -2.97,-13.78 -2.97,-21.4 0,-11.48 1.65,-21.54 4.99,-30.2 3.29,-8.7 7.81,-15.1 13.45,-19.24 5.69,-4.09 13.27,-6.96 22.77,-8.51l3.38 24.27c-7.62,1.08 -13.59,4.28 -17.87,9.55 -4.28,5.27 -6.4,12.7 -6.4,22.34 0,11.34 1.88,19.47 5.65,24.32 3.76,4.84 8.18,7.29 13.21,7.29 3.2,0 6.12,-0.99 8.71,-3.01 2.63,-2.02 4.84,-5.18 6.58,-9.5 0.94,-2.5 3.06,-9.74 6.35,-21.87 4.66,-17.5 8.52,-29.73 11.48,-36.69 2.96,-6.96 7.34,-12.42 12.98,-16.37 5.69,-4 12.75,-5.98 21.21,-5.98 8.24,0 16,2.4 23.29,7.25 7.29,4.84 12.93,11.8 16.93,20.88 4,9.13 5.97,19.43 5.97,30.91 0,19 -3.95,33.53 -11.8,43.5 -7.9,9.98 -19.57,16.33 -35.04,19.1z"/>
  <path id="7" class="fil2" d="M22869.65 18527.93l-28.22 0 0 -28.22 28.22 0 0 28.22z"/>
  <path id="8" class="fil2" d="M22816.03 18360.9l3.38 -24.27c16.7,2.68 29.73,9.45 39.19,20.41 9.45,10.96 14.15,24.46 14.15,40.41 0,19.99 -6.53,36.08 -19.61,48.21 -13.08,12.18 -31.8,18.25 -56.16,18.25 -15.81,0 -29.59,-2.63 -41.39,-7.85 -11.86,-5.22 -20.75,-13.17 -26.63,-23.9 -5.92,-10.68 -8.89,-22.29 -8.89,-34.9 0,-15.85 4,-28.88 12.04,-38.95 8.05,-10.11 19.48,-16.6 34.25,-19.42l3.67 23.99c-9.83,2.3 -17.22,6.35 -22.2,12.23 -4.94,5.83 -7.44,12.88 -7.44,21.16 0,12.51 4.47,22.67 13.41,30.53 8.98,7.81 23.09,11.71 42.47,11.71 19.66,0 33.92,-3.76 42.81,-11.29 8.89,-7.57 13.35,-17.4 13.35,-29.49 0,-9.78 -2.96,-17.92 -8.93,-24.41 -5.93,-6.54 -15.1,-10.68 -27.47,-12.42z"/>
  <path id="9" class="fil2" d="M22796.41 18324.78c-27.04,0 -47.08,-7.53 -60.11,-22.63 -10.82,-12.56 -16.23,-27.94 -16.23,-46.05 0,-20.08 6.59,-36.54 19.76,-49.34 13.12,-12.75 31.33,-19.14 54.51,-19.14 18.82,0 33.59,2.82 44.36,8.46 10.77,5.65 19.14,13.88 25.12,24.7 5.97,10.77 8.93,22.58 8.93,35.32 0,20.51 -6.53,37.07 -19.66,49.72 -13.12,12.65 -32.03,18.96 -56.68,18.96zm0.05 -25.4c18.72,0 32.74,-4.1 42,-12.28 9.32,-8.23 13.97,-18.53 13.97,-31 0,-12.32 -4.65,-22.57 -14.01,-30.81 -9.36,-8.18 -23.61,-12.27 -42.76,-12.27 -18.06,0 -31.75,4.14 -41.01,12.37 -9.32,8.23 -13.97,18.48 -13.97,30.71 0,12.47 4.61,22.77 13.87,31 9.27,8.18 23.24,12.28 41.91,12.28z"/>
  <path id="10" class="fil2" d="M22869.65 18158.5l-146.47 0 0 -22.29 20.69 0c-7.15,-4.56 -12.93,-10.68 -17.26,-18.3 -4.37,-7.62 -6.54,-16.27 -6.54,-26.01 0,-10.82 2.26,-19.71 6.73,-26.62 4.52,-6.92 10.77,-11.81 18.86,-14.63 -17.07,-11.67 -25.59,-26.77 -25.59,-45.39 0,-14.58 4,-25.83 12.04,-33.63 8.05,-7.86 20.42,-11.81 37.12,-11.81l100.42 0 0 24.84 -92.19 0c-9.88,0 -17.03,0.84 -21.4,2.44 -4.38,1.6 -7.86,4.52 -10.54,8.8 -2.68,4.23 -4,9.22 -4,14.91 0,10.35 3.44,18.91 10.26,25.73 6.86,6.82 17.82,10.2 32.87,10.2l85 0 0 24.84 -95.06 0c-11.01,0 -19.29,2.02 -24.79,6.07 -5.5,4.04 -8.28,10.67 -8.28,19.85 0,6.96 1.84,13.4 5.51,19.33 3.66,5.93 9.03,10.21 16.13,12.89 7.05,2.63 17.26,3.95 30.57,3.95l75.92 0 0 24.83z"/>
  <g id="_2851759262784">
   <path class="fil3 str2" d="M19846.08 18781.05l503.98 0 0 99.16 -503.98 0 0 -99.16z"/>
   <path class="fil4 str2" d="M20350.06 18781.05l503.97 0 0 99.16 -503.97 0 0 -99.16z"/>
   <path class="fil3 str2" d="M20854.03 18781.05l503.97 0 0 99.16 -503.97 0 0 -99.16z"/>
   <path class="fil4 str2" d="M21358.12 18781.05l503.98 0 0 99.16 -503.98 0 0 -99.16z"/>
   <path class="fil3 str2" d="M21862.11 18781.05l503.97 0 0 99.16 -503.97 0 0 -99.16z"/>
   <path class="fil4 str2" d="M21459.95 19079.99l806.06 0 0 99.16 -806.06 0 0 -99.16z"/>
   <path class="fil3 str2" d="M20653.9 19079.99l806.06 0 0 99.16 -806.06 0 0 -99.16z"/>
   <path class="fil4 str2" d="M19847.85 19079.99l806.06 0 0 99.16 -806.06 0 0 -99.16z"/>
  </g>
  <rect class="fil5 str3" x="1000" y="1000" width="22081.08" height="19000"/>
  <g id="_2851759299712">
   <path class="fil1 str1" d="M18764.18 18173.24l815.93 0 0 1592.89 -815.93 0 0 -1592.89z"/>
   <path class="fil6" d="M19112.28 18609.37c-0.92,3.32 -1.63,6.35 -2.07,9.15 -0.44,2.79 -0.65,5.18 -0.65,7.22 0,5.59 1.8,9.56 5.29,11.89 3.49,2.33 9.55,3.49 18.05,3.49l4.15 0 -4.96 22.72 -78.17 0 5.29 -22.72 2.89 0c7.36,0 12.82,-1.51 16.48,-4.54 3.6,-2.97 6.32,-8.39 8.12,-16.14l37.59 -153.79c0.6,-2.74 1.14,-5.54 1.52,-8.45 0.33,-2.91 0.55,-5.77 0.55,-8.62 0,-5.36 -1.96,-9.15 -5.95,-11.36 -3.92,-2.22 -10.69,-3.32 -20.23,-3.32l-3.06 0 5.29 -22.72 72.33 0 62.14 183.5 31.31 -129.03c1.08,-4.2 1.85,-7.63 2.34,-10.31 0.49,-2.68 0.71,-4.72 0.71,-6.06 0,-5.6 -1.8,-9.56 -5.35,-11.89 -3.6,-2.33 -9.71,-3.49 -18.32,-3.49l-4.15 0 4.96 -22.72 78.5 0 -5.62 22.72 -2.84 0c-7.37,0 -12.87,1.51 -16.47,4.54 -3.66,2.97 -6.33,8.33 -8.18,15.96l-50.68 208.44 -21.54 0 -72.06 -209.48 -37.21 155.01z"/>
   <path class="fil5 str4" d="M19172.97 19632.93l0 -769.27"/>
   <path class="fil5 str4" d="M18890.92 19356.88l563.14 0"/>
   <path class="fil5 str4" d="M19028.07 19496.87l294.22 -286.81"/>
   <path class="fil5 str4" d="M19024.93 19209.82l297.98 288.85"/>
   <path class="fil5 str4" d="M19172.83 18866.39l-95.47 118.01"/>
   <path class="fil5 str4" d="M19173.45 18866.35l87.89 118.05"/>
  </g>
  <g id="_2851466479104">
   <path class="fil1 str1" d="M17670.38 19296.68l0 473.7 -2309.37 0 0 -473.7 2309.37 0z"/>
   <path class="fil6" d="M16438.35 19635.15l0 -202.07 40.07 0 47.79 143.04c4.42,13.31 7.62,23.28 9.64,29.91 2.31,-7.33 5.93,-18.15 10.82,-32.4l48.64 -140.55 35.79 0 0 202.07 -25.68 0 0 -169.05 -58.98 169.05 -24.09 0 -58.32 -172.15 0 172.15 -25.68 0z"/>
   <path id="1" class="fil6" d="M16770.8 19587.74l25.68 3.38c-3.99,14.91 -11.47,26.53 -22.39,34.76 -10.91,8.24 -24.83,12.37 -41.81,12.37 -21.36,0 -38.29,-6.58 -50.8,-19.75 -12.51,-13.12 -18.77,-31.61 -18.77,-55.36 0,-24.56 6.31,-43.65 18.96,-57.2 12.65,-13.59 29.07,-20.37 49.25,-20.37 19.52,0 35.46,6.64 47.83,19.95 12.37,13.31 18.58,32.03 18.58,56.16 0,1.46 -0.05,3.67 -0.14,6.58l-109.08 0c0.94,16.04 5.46,28.37 13.64,36.88 8.14,8.51 18.35,12.79 30.53,12.79 9.08,0 16.84,-2.39 23.24,-7.19 6.44,-4.8 11.52,-12.47 15.28,-23zm-81.28 -39.8l81.56 0c-1.08,-12.32 -4.23,-21.54 -9.36,-27.7 -7.85,-9.55 -18.1,-14.35 -30.66,-14.35 -11.39,0 -20.93,3.81 -28.7,11.43 -7.71,7.62 -11.99,17.83 -12.84,30.62z"/>
   <path id="2" class="fil6" d="M16827.57 19635.15l0 -146.47 22.3 0 0 22.43c5.69,-10.39 10.96,-17.26 15.8,-20.55 4.85,-3.34 10.16,-4.99 15.95,-4.99 8.37,0 16.89,2.64 25.54,7.86l-8.84 22.91c-6.02,-3.39 -12.04,-5.08 -18.06,-5.08 -5.41,0 -10.26,1.64 -14.54,4.89 -4.28,3.24 -7.34,7.76 -9.17,13.54 -2.78,8.8 -4.14,18.44 -4.14,28.93l0 76.53 -24.84 0z"/>
   <path id="3" class="fil6" d="M17017.51 19581.53l24.27 3.38c-2.68,16.7 -9.45,29.73 -20.41,39.19 -10.96,9.45 -24.46,14.15 -40.41,14.15 -19.99,0 -36.08,-6.53 -48.21,-19.61 -12.18,-13.08 -18.25,-31.8 -18.25,-56.16 0,-15.81 2.63,-29.59 7.85,-41.44 5.22,-11.81 13.17,-20.7 23.9,-26.58 10.68,-5.92 22.29,-8.89 34.9,-8.89 15.85,0 28.88,4 38.95,12.04 10.11,8.05 16.6,19.48 19.42,34.25l-23.99 3.67c-2.3,-9.83 -6.35,-17.22 -12.23,-22.2 -5.83,-4.94 -12.88,-7.44 -21.16,-7.44 -12.51,0 -22.67,4.47 -30.53,13.41 -7.81,8.98 -11.71,23.09 -11.71,42.47 0,19.66 3.76,33.92 11.29,42.81 7.57,8.89 17.4,13.35 29.49,13.35 9.78,0 17.92,-2.96 24.41,-8.93 6.54,-5.93 10.68,-15.1 12.42,-27.47z"/>
   <path id="4" class="fil6" d="M17158.62 19616.81c-9.22,7.85 -18.11,13.35 -26.62,16.6 -8.52,3.25 -17.64,4.84 -27.43,4.84 -16.08,0 -28.45,-3.9 -37.11,-11.75 -8.65,-7.81 -12.98,-17.83 -12.98,-30.01 0,-7.15 1.65,-13.69 4.89,-19.62 3.29,-5.93 7.57,-10.63 12.84,-14.2 5.32,-3.58 11.24,-6.31 17.88,-8.14 4.89,-1.27 12.27,-2.49 22.1,-3.72 20.04,-2.35 34.86,-5.22 44.31,-8.51 0.1,-3.39 0.14,-5.55 0.14,-6.44 0,-10.07 -2.35,-17.17 -7.05,-21.31 -6.35,-5.6 -15.81,-8.37 -28.32,-8.37 -11.71,0 -20.36,2.07 -25.92,6.16 -5.59,4.09 -9.68,11.33 -12.37,21.78l-24.27 -3.39c2.21,-10.4 5.84,-18.82 10.92,-25.21 5.08,-6.4 12.41,-11.29 22.01,-14.77 9.55,-3.44 20.7,-5.18 33.3,-5.18 12.51,0 22.72,1.46 30.57,4.42 7.81,2.97 13.6,6.64 17.27,11.11 3.67,4.46 6.25,10.11 7.76,16.93 0.8,4.23 1.22,11.85 1.22,22.81l0 32.93c0,23 0.52,37.53 1.55,43.69 0.99,6.17 3.06,12.05 6.07,17.69l-25.96 0c-2.5,-5.22 -4.1,-11.34 -4.8,-18.34zm-1.98 -55.04c-9.03,3.67 -22.57,6.78 -40.64,9.32 -10.25,1.45 -17.49,3.1 -21.73,4.93 -4.23,1.84 -7.48,4.52 -9.78,8 -2.31,3.53 -3.48,7.43 -3.48,11.76 0,6.54 2.49,12.04 7.52,16.42 5.04,4.37 12.38,6.58 22.02,6.58 9.55,0 18.06,-2.07 25.54,-6.25 7.43,-4.14 12.93,-9.84 16.41,-17.03 2.69,-5.6 4,-13.83 4,-24.7l0.14 -9.03z"/>
   <path id="5" class="fil6" d="M17273.81 19613l3.39 21.91c-6.96,1.46 -13.22,2.22 -18.68,2.22 -8.98,0 -15.94,-1.42 -20.93,-4.28 -4.94,-2.87 -8.42,-6.59 -10.44,-11.25 -2.02,-4.65 -3.01,-14.44 -3.01,-29.35l0 -84.38 -18.34 0 0 -19.19 18.34 0 0 -36.22 24.84 -14.91 0 51.13 24.83 0 0 19.19 -24.83 0 0 85.79c0,7.11 0.42,11.67 1.31,13.69 0.85,2.02 2.26,3.62 4.24,4.85 1.97,1.17 4.79,1.78 8.46,1.78 2.73,0 6.35,-0.33 10.82,-0.98z"/>
   <path id="6" class="fil6" d="M17289 19561.91c0,-27.04 7.53,-47.08 22.63,-60.11 12.56,-10.82 27.94,-16.23 46.05,-16.23 20.08,0 36.54,6.59 49.34,19.76 12.75,13.12 19.14,31.33 19.14,54.51 0,18.82 -2.82,33.59 -8.46,44.36 -5.65,10.77 -13.88,19.14 -24.7,25.12 -10.77,5.97 -22.58,8.93 -35.32,8.93 -20.51,0 -37.07,-6.53 -49.72,-19.66 -12.65,-13.12 -18.96,-32.03 -18.96,-56.68zm25.4 0.05c0,18.72 4.1,32.74 12.28,42 8.23,9.32 18.53,13.97 31,13.97 12.32,0 22.57,-4.65 30.81,-14.01 8.18,-9.36 12.27,-23.61 12.27,-42.76 0,-18.06 -4.14,-31.75 -12.37,-41.01 -8.23,-9.32 -18.48,-13.97 -30.71,-13.97 -12.47,0 -22.77,4.61 -31,13.87 -8.18,9.27 -12.28,23.24 -12.28,41.91z"/>
   <path id="7" class="fil6" d="M17454.99 19635.15l0 -146.47 22.3 0 0 22.43c5.69,-10.39 10.96,-17.26 15.8,-20.55 4.85,-3.34 10.16,-4.99 15.95,-4.99 8.37,0 16.89,2.64 25.54,7.86l-8.84 22.91c-6.02,-3.39 -12.04,-5.08 -18.06,-5.08 -5.41,0 -10.26,1.64 -14.54,4.89 -4.28,3.24 -7.34,7.76 -9.17,13.54 -2.78,8.8 -4.14,18.44 -4.14,28.93l0 76.53 -24.84 0z"/>
   <circle class="fil7 str5" cx="15579.38" cy="19529.83" r="118.79"/>
   <rect class="fil7 str5" x="16037.31" y="19421.55" width="226.91" height="226.91"/>
   <path class="fil5 str6" d="M15753.28 19528.96l220.31 0"/>
   <path class="fil5 str6" d="M15970.93 19529.62l-64.02 65.38"/>
   <path class="fil5 str6" d="M15971.1 19528.48l-63.42 -61.39"/>
  </g>
 </g>
</svg>
