<?xml version="1.0" encoding="UTF-8" standalone="no"?>
<!-- Created with Inkscape (http://www.inkscape.org/) -->
<svg
   xmlns:svg="http://www.w3.org/2000/svg"
   xmlns="http://www.w3.org/2000/svg"
   version="1.0"
   width="115.99999"
   height="101"
   id="svg2">
  <defs
     id="defs4" />
  <g
     transform="translate(-72.714285,-134.71932)"
     id="layer1">
    <g
       transform="translate(-20.714289,24.285714)"
       id="g2264">
      <path
         d="M 93.428574,160.93361 L 93.428574,110.43361 L 151.42857,110.43361 L 209.42857,110.43361 L 209.42857,160.93361 L 209.42857,211.43361 L 151.42857,211.43361 L 93.428574,211.43361 L 93.428574,160.93361 z "
         style="fill:#fdfdfc"
         id="path2268" />
      <path
         d="M 178.18382,201.93361 C 178.44667,200.55861 179.02047,199.43361 179.45893,199.43361 C 179.8974,199.43361 179.40945,197.11716 178.3746,194.28595 C 177.33976,191.45473 176.70097,188.80188 176.95507,188.39073 C 177.20918,187.97958 176.78121,187.39917 176.00402,187.10093 C 173.69463,186.21474 175.26852,179.09274 178.00589,178.04231 C 180.51874,177.07804 179.52446,175.43361 176.42857,175.43361 C 173.48283,175.43361 172.45742,174.15185 174.42857,172.93361 C 174.97857,172.59369 175.42857,171.86558 175.42857,171.31558 C 175.42857,170.76558 174.97857,170.59369 174.42857,170.93361 C 173.86476,171.28206 173.42857,170.47177 173.42857,169.07596 C 173.42857,167.71433 173.99107,166.3733 174.67857,166.09589 C 175.36607,165.81848 174.91607,165.55598 173.67857,165.51256 C 172.25056,165.46245 171.41254,164.79429 171.38468,163.68361 C 171.29338,160.04343 168.458,170.12655 168.44363,174.14251 C 168.42233,180.09566 165.69985,184.8115 160.92857,187.15998 C 153.11962,191.00364 149.33025,192.43361 146.95366,192.43361 C 145.62978,192.43361 144.26849,192.88361 143.92857,193.43361 C 143.58865,193.98361 142.86054,194.43361 142.31054,194.43361 C 141.76054,194.43361 141.55479,194.0384 141.85333,193.55536 C 142.15186,193.07233 141.07831,192.41356 139.46767,192.09143 C 135.93227,191.38435 130.6469,186.31927 127.9639,181.06713 C 126.88332,178.95184 122.94582,173.80177 119.21389,169.62254 C 115.01152,164.91646 112.42857,161.15023 112.42857,159.72877 C 112.42857,156.89517 113.73955,156.77898 115.5566,159.45153 C 116.72348,161.16778 117.41442,161.32771 120.17857,160.52133 C 122.54258,159.83169 123.43686,159.89496 123.45898,160.75342 C 123.47571,161.40252 123.95336,161.13664 124.52044,160.16258 C 125.08752,159.18851 125.97729,158.6547 126.49771,158.97634 C 127.01812,159.29797 128.14761,158.85744 129.00767,157.99737 C 129.86774,157.1373 131.11491,156.43361 131.77916,156.43361 C 132.98005,156.43361 140.75318,149.42488 140.18378,148.85549 C 139.85875,148.53045 131.38454,151.01327 127.52645,152.5639 C 125.92667,153.20688 124.77432,153.17935 124.07645,152.48148 C 123.50012,151.90515 122.20963,151.43361 121.2087,151.43361 C 116.52121,151.43361 104.49004,140.24502 105.26983,136.61098 C 105.65317,134.82448 108.55575,132.39417 109.56276,133.01654 C 109.9237,133.23961 110.47703,132.74971 110.7924,131.92787 C 111.48085,130.13381 109.32856,129.93363 107.62857,131.63361 C 106.96857,132.29361 106.42857,132.51861 106.42857,132.13361 C 106.42857,131.74861 105.41607,132.44611 104.17857,133.68361 L 101.92857,135.93361 L 101.59949,133.61088 C 101.02248,129.53822 102.10689,128.20405 105.40528,128.92849 C 109.29144,129.78204 112.42857,128.73622 112.42857,126.58715 C 112.42857,125.14488 113.41614,124.88814 118.70285,124.95601 C 122.15371,125.00032 125.45488,125.33184 126.0388,125.69272 C 126.62272,126.0536 128.79086,126.4627 130.8569,126.60185 C 133.54771,126.78306 134.88492,126.36956 135.57065,125.14422 C 136.74496,123.04585 142.42857,122.77464 142.42857,124.81698 C 142.42857,126.73695 146.18366,127.53566 147.76689,125.95244 C 148.48361,125.23572 149.89568,124.48828 150.90482,124.29146 C 151.91396,124.09464 152.85277,123.16007 152.99106,122.21462 C 153.12936,121.26918 152.72187,120.59418 152.08554,120.71462 C 151.44921,120.83507 151.11805,120.25861 151.34963,119.43361 C 151.58121,118.60861 151.80621,116.96171 151.84963,115.77383 C 151.90633,114.2227 152.32455,113.83565 153.33369,114.40039 C 154.10651,114.83288 156.25006,114.76946 158.09713,114.25946 C 159.9442,113.74946 162.0119,113.68926 162.69201,114.12569 C 163.37212,114.56212 165.36292,114.97464 167.11601,115.04241 C 168.8691,115.11017 171.03874,115.90092 171.93744,116.79961 C 173.4589,118.32108 174.86042,118.83911 176.67857,118.55203 C 177.09107,118.4869 177.42857,118.85329 177.42857,119.36622 C 177.42857,121.21509 181.54299,121.64004 183.37668,119.98057 C 185.03499,118.47982 185.23178,118.47838 185.80143,119.96288 C 186.14242,120.85147 186.01397,122.33979 185.51599,123.27027 C 184.43026,125.29898 186.37657,128.43361 188.72193,128.43361 C 189.80422,128.43361 190.26948,129.32437 190.21361,131.2895 C 190.118,134.65203 191.03544,136.43361 192.86259,136.43361 C 193.58638,136.43361 194.44857,137.78361 194.77857,139.43361 C 195.24355,141.75852 195.91413,142.43361 197.75854,142.43361 C 200.1889,142.43361 205.80455,148.01624 204.87961,149.51282 C 204.61557,149.94006 205.30456,150.57686 206.4107,150.92794 C 208.34703,151.54251 208.35687,151.65567 206.67523,153.96851 C 205.71456,155.28975 204.36607,156.3849 203.67857,156.40219 C 202.06913,156.44265 202.06913,158.66369 203.67857,160.32007 C 204.68696,161.35787 204.54199,161.54466 202.92857,161.28645 C 200.27259,160.8614 200.02851,161.33568 200.88841,165.25077 C 201.42049,167.67331 201.18703,169.04303 200.02278,170.32951 C 199.14596,171.29838 198.42857,173.4278 198.42857,175.06155 C 198.42857,177.88876 198.60394,178.01153 202.06505,177.60747 C 204.58848,177.31287 205.48865,177.52737 205.00603,178.30827 C 204.62351,178.92721 203.50013,179.43361 202.50963,179.43361 C 201.51912,179.43361 199.86388,180.55861 198.83129,181.93361 C 197.79871,183.30861 196.38568,184.43361 195.69122,184.43361 C 193.80504,184.43361 194.16598,185.78852 196.42857,187.20154 C 198.67552,188.60478 199.14489,193.31729 197.22857,195.23361 C 195.52721,196.93497 194.43108,196.72082 194.41326,194.68361 C 194.40133,193.32037 194.20795,193.23346 193.53826,194.29037 C 192.93897,195.23618 192.47139,195.3119 191.99456,194.54037 C 190.76305,192.54776 189.50901,193.37811 189.51286,196.18361 C 189.51939,200.94025 189.13772,202.33124 187.67167,202.89382 C 185.89837,203.5743 184.2,202.61246 184.97128,201.36451 C 185.28771,200.85252 184.62386,200.43361 183.49606,200.43361 C 182.36827,200.43361 180.88346,201.33361 180.1965,202.43361 C 178.49082,205.16484 177.60806,204.94554 178.18382,201.93361 z "
         style="fill:#ef7367"
         id="path2266" />
    </g>
  </g>
</svg>
