<?xml version="1.0" encoding="UTF-8" standalone="no"?>
<!-- Created with Inkscape (http://www.inkscape.org/) -->
<svg
   xmlns:svg="http://www.w3.org/2000/svg"
   xmlns="http://www.w3.org/2000/svg"
   version="1.0"
   width="146"
   height="128"
   id="svg2">
  <defs
     id="defs4" />
  <g
     transform="translate(-12.714294,-8.362186)"
     id="layer1">
    <g
       transform="translate(-28.571427,-34.285714)"
       id="g2221">
      <path
         d="M 41.285721,106.6479 L 41.285721,42.6479 L 114.28572,42.6479 L 187.28572,42.6479 L 187.28572,106.6479 L 187.28572,170.6479 L 114.28572,170.6479 L 41.285721,170.6479 L 41.285721,106.6479 z "
         style="fill:#fcfbfb"
         id="path2225" />
      <path
         d="M 58.536145,163.68632 C 57.464453,162.536 55.924843,161.84915 55.114788,162.16 C 53.883914,162.63233 51.691162,159.83968 50.786762,156.6479 C 50.534719,155.7584 49.288785,141.36725 48.765859,133.30548 C 48.486075,128.99214 47.83706,124.67809 47.323605,123.71869 C 46.810149,122.75929 46.570197,120.55088 46.790377,118.81111 C 47.010557,117.07135 46.823447,115.6479 46.374576,115.6479 C 45.925706,115.6479 45.558448,113.8479 45.558448,111.6479 C 45.558448,108.77566 45.977435,107.6479 47.044529,107.6479 C 48.313739,107.6479 48.330323,107.40526 47.158166,105.98528 C 46.088197,104.68909 46.061211,104.22994 47.035721,103.90195 C 47.723221,103.67055 48.250195,102.73123 48.206774,101.81457 C 48.157542,100.77522 47.937978,100.61839 47.62344,101.3979 C 46.443516,104.32206 45.180893,102.33763 45.555578,98.1479 C 45.776915,95.6729 45.581745,93.6479 45.121865,93.6479 C 43.991646,93.6479 44.052568,88.910031 45.191841,88.205921 C 45.690207,87.897914 45.885189,86.832265 45.625133,85.837813 C 45.305747,84.616477 45.953054,83.664873 47.619809,82.905449 C 49.744481,81.937383 50.157557,82.049797 50.592897,83.714539 C 51.110794,85.694982 53.285721,86.448834 53.285721,84.6479 C 53.285721,84.0979 54.133237,83.6479 55.16909,83.6479 C 57.073979,83.6479 58.245891,81.13141 58.272066,76.984764 C 58.284684,74.985851 58.518966,74.909668 61.358008,75.981287 C 64.06514,77.003115 64.570271,76.90365 65.608008,75.144423 C 66.25575,74.046335 66.797615,72.6979 66.812152,72.1479 C 66.826689,71.5979 67.233717,70.515871 67.71666,69.743392 C 68.291338,68.82418 68.227734,68.565704 67.532583,68.995331 C 66.948397,69.356377 65.416369,69.22943 64.128074,68.713226 C 62.345626,67.99902 62.211535,67.759521 63.567106,67.711286 C 64.546867,67.676424 65.582847,67.037178 65.869282,66.29074 C 66.155717,65.544302 68.151679,64.352197 70.304752,63.641619 C 74.587993,62.228022 74.678982,60.345351 70.44021,60.838851 C 68.387127,61.077881 67.718147,60.67495 67.487464,59.060395 C 67.099243,56.343229 68.946509,54.90554 73.30012,54.536528 C 77.53151,54.177875 79.285721,55.107027 79.285721,57.706917 C 79.285721,59.256065 79.987627,59.6479 82.762668,59.6479 C 85.367928,59.6479 86.650285,60.274662 87.877678,62.1479 C 89.321188,64.350975 90.222509,64.6479 95.466472,64.6479 C 102.25498,64.6479 105.28572,65.875157 105.28572,68.624067 C 105.28572,69.672256 105.7348,70.80741 106.28367,71.146632 C 107.40115,71.837274 113.28572,68.679042 113.28572,67.388648 C 113.28572,65.285642 118.25718,61.398859 120.92929,61.412763 C 122.50033,61.420938 124.34822,60.972087 125.03572,60.415318 C 126.75824,59.020341 129.28572,61.249301 129.28572,64.163356 C 129.28572,67.285165 131.70438,67.935009 136.09162,65.99196 C 140.69494,63.95321 143.28572,63.411418 143.28572,64.487508 C 143.28572,64.94239 143.84822,65.371475 144.53572,65.44103 C 145.22322,65.510585 147.02322,65.863045 148.53572,66.224274 C 150.28594,66.642277 151.28572,66.475114 151.28572,65.764477 C 151.28572,65.15036 152.09572,64.6479 153.08572,64.6479 C 154.07572,64.6479 155.40261,64.131006 156.03437,63.499247 C 156.89924,62.634375 157.83316,62.776578 159.81455,64.074836 C 162.99672,66.159873 170.12938,67.022543 171.91738,65.538632 C 172.88198,64.738088 173.79368,65.07978 175.49857,66.880802 C 176.7565,68.209669 178.68278,69.628814 179.77919,70.034458 C 181.69995,70.745086 181.68302,70.839613 179.31513,72.625712 C 177.07276,74.317142 176.97552,74.699776 178.20454,76.996206 C 178.94535,78.380431 179.2808,80.218336 178.94998,81.080439 C 178.61916,81.942543 178.78437,82.6479 179.3171,82.6479 C 181.17951,82.6479 180.26605,86.548346 178.03572,88.119388 C 176.22824,89.392575 176.05977,89.875281 177.17912,90.573734 C 178.025,91.101547 178.34615,92.308817 177.99642,93.646178 C 177.56997,95.276924 178.31494,96.743782 180.86432,99.293167 C 183.72474,102.15359 184.13099,103.06849 183.26183,104.69253 C 182.0611,106.93613 181.16534,107.12752 179.5281,105.49028 C 177.37681,103.33899 172.16565,109.59337 174.13364,111.96466 C 175.5904,113.71994 172.90775,116.9801 170.60742,116.25 C 168.62561,115.621 166.02515,108.92698 167.42622,108.06107 C 168.9951,107.09144 168.31557,102.98489 166.28166,101.14422 C 164.63663,99.655493 163.83684,99.531394 161.81737,100.45153 C 160.2699,101.1566 159.136,101.21466 158.76108,100.60802 C 158.42985,100.07209 156.41455,99.923477 154.22536,100.27354 C 152.05856,100.62003 150.29261,100.5085 150.30103,100.02571 C 150.3255,98.623295 151.66242,96.993813 153.28572,96.387879 C 154.11072,96.079929 153.43572,95.798482 151.78572,95.762442 C 147.16123,95.661433 143.36954,95.065057 142.62629,94.321799 C 141.55218,93.247695 140.50391,93.539171 140.55437,94.8979 C 140.71008,99.090743 140.09774,100.8843 138.35492,101.34006 C 137.20688,101.64028 136.64214,102.41314 136.96191,103.24644 C 137.27813,104.07049 136.87195,104.6479 135.97604,104.6479 C 135.13803,104.6479 134.24228,104.0854 133.98548,103.3979 C 133.6879,102.60123 133.2308,102.87323 132.72509,104.1479 C 132.28867,105.2479 131.47772,106.4511 130.92297,106.82169 C 130.27291,107.25593 130.38492,108.0625 131.23804,109.09044 C 132.34766,110.42746 132.29683,110.97814 130.92373,112.4954 C 130.02283,113.49089 129.28572,114.83245 129.28572,115.47664 C 129.28572,116.12083 128.72322,116.5354 128.03572,116.3979 C 127.28742,116.24824 126.65995,117.45231 126.47236,119.3979 C 126.16846,122.54986 124.28572,124.10745 124.28572,121.20692 C 124.28572,120.41438 123.72322,119.44223 123.03572,119.04659 C 122.34822,118.65095 122.1242,118.70038 122.5379,119.15642 C 123.60096,120.3283 120.34367,123.6479 118.13073,123.6479 C 117.11598,123.6479 116.33901,123.9854 116.40414,124.3979 C 116.72345,126.42021 116.15251,127.6479 114.89271,127.6479 C 114.12655,127.6479 113.24068,128.3229 112.92409,129.1479 C 112.60751,129.9729 111.4192,130.6479 110.2834,130.6479 C 109.1476,130.6479 106.89865,131.9979 105.28572,133.6479 C 102.41246,136.58721 98.62285,137.52348 96.735721,135.7603 C 96.213221,135.27211 94.801131,134.57565 93.597742,134.21259 C 91.586244,133.60574 91.4144,133.88843 91.467243,137.71732 C 91.529338,142.21665 90.010329,143.98382 86.910875,143.01806 C 85.87971,142.69676 84.699438,142.97849 84.288049,143.64413 C 83.707443,144.58357 83.042721,144.58822 81.317463,143.66489 C 79.416732,142.64765 78.88154,142.77994 77.621867,144.57837 C 76.811722,145.73502 75.811637,146.47293 75.399454,146.21819 C 74.987271,145.96345 74.031052,146.61381 73.274523,147.66344 C 72.295483,149.02178 71.544982,149.27803 70.670729,148.55246 C 69.826897,147.85215 68.834028,147.91304 67.498632,148.74701 C 65.372675,150.07469 65.614955,153.11385 68.040421,155.54322 C 69.018986,156.52336 69.103883,157.14225 68.32574,157.62317 C 67.716473,157.99971 67.484085,159.00125 67.809322,159.84881 C 68.172058,160.79408 67.701918,161.65795 66.593192,162.08341 C 65.599083,162.46488 64.720465,162.63545 64.640709,162.46245 C 64.560952,162.28945 63.593216,162.96463 62.490185,163.96286 C 60.547808,165.72069 60.423335,165.71198 58.536145,163.68632 z "
         style="fill:#ef8271"
         id="path2223" />
    </g>
  </g>
</svg>
