<svg id="Light" enable-background="new 0 0 24 24" height="512" viewBox="0 0 24 24" width="512" xmlns="http://www.w3.org/2000/svg"><path d="m16 7.5c0-.276-.224-.5-.5-.5h-4.5-2.5c-.276 0-.5.224-.5.5s.224.5.5.5h2.5c1.103 0 2 .897 2 2h-4.5c-.276 0-.5.224-.5.5s.224.5.5.5h4.222c-.347.595-.985 1-1.722 1h-2.5c-.212 0-.401.134-.472.335-.07.2-.007.423.159.556l5 4c.093.073.203.109.313.109.146 0 .292-.064.391-.188.172-.216.138-.53-.078-.703l-3.887-3.109h1.074c1.302 0 2.402-.839 2.816-2h1.684c.276 0 .5-.224.5-.5s-.224-.5-.5-.5h-1.5c0-.771-.301-1.468-.78-2h2.28c.276 0 .5-.224.5-.5z"/><path d="m12 1c-6.065 0-11 4.935-11 11s4.935 11 11 11 11-4.935 11-11-4.935-11-11-11zm0 21c-5.514 0-10-4.486-10-10s4.486-10 10-10 10 4.486 10 10-4.486 10-10 10z"/></svg>